#fx_chui_em.obj

v -0.03712089 -0.01856101 0.07003974
v -0.03158396 -0.02311412 0.1074048
v -0.03158338 -0.02311413 0.07001199
v -0.03712089 -0.01856162 0.1073968
v -0.03158396 -0.0180074 0.1126243
v -0.03712092 -0.01730358 0.1084658
v -0.03712092 -0.01730291 0.06895992
v -0.03158391 -0.01800742 0.06479254
v -0.03712093 0.01730961 0.1084658
v -0.03712093 0.01730689 0.06895991
v -0.03158395 0.01800594 0.1126243
v -0.0315839 0.01800594 0.06479254
v -0.03712093 0.01856014 0.1073967
v -0.03158395 0.02311265 0.1074048
v -0.03158337 0.02311265 0.07001199
v -0.03712093 0.01855953 0.07003975
v -0.03158338 -0.02311413 0.07001199
v -1.108008E-06 -0.02311414 0.1074048
v -1.108008E-06 -0.02311414 0.07001199
v -0.03158396 -0.02311412 0.1074048
v -1.108008E-06 -0.01800741 0.1126243
v -0.03158396 -0.0180074 0.1126243
v -0.03158391 -0.01800742 0.06479254
v -1.108008E-06 -0.01800743 0.06479254
v -1.10498E-06 0.01800593 0.1126243
v -0.03158395 0.01800594 0.1126243
v -0.03158395 0.02311265 0.1074048
v -1.10498E-06 0.02311264 0.1074048
v -0.03158337 0.02311265 0.07001199
v -1.10498E-06 0.02311265 0.07001199
v -0.0315839 0.01800594 0.06479254
v -1.10498E-06 0.01800594 0.06479254
v -0.03158391 -0.01800742 0.06479254
v -1.108008E-06 -0.01800743 0.06479254
v 0.03711867 -0.01856103 0.07003974
v 0.03158174 -0.02311414 0.1074048
v 0.03711867 -0.01856164 0.1073968
v 0.03158116 -0.02311414 0.07001199
v 0.03158174 -0.01800741 0.1126243
v 0.0371187 -0.0173036 0.1084658
v 0.0371187 -0.01730292 0.06895992
v 0.03158169 -0.01800743 0.06479254
v 0.03711871 0.01730959 0.1084658
v 0.03711871 0.01730688 0.06895991
v 0.03158175 0.01800592 0.1126243
v 0.0315817 0.01800593 0.06479254
v 0.03711871 0.01856013 0.1073967
v 0.03158174 0.02311263 0.1074048
v 0.03158116 0.02311264 0.07001199
v 0.03711871 0.01855951 0.07003975
v 0.03158116 -0.02311414 0.07001199
v -1.108008E-06 -0.02311414 0.1074048
v 0.03158174 -0.02311414 0.1074048
v -1.108008E-06 -0.02311414 0.07001199
v -1.108008E-06 -0.01800741 0.1126243
v 0.03158174 -0.01800741 0.1126243
v 0.03158169 -0.01800743 0.06479254
v -1.108008E-06 -0.01800743 0.06479254
v -1.10498E-06 0.01800593 0.1126243
v 0.03158175 0.01800592 0.1126243
v 0.03158174 0.02311263 0.1074048
v -1.10498E-06 0.02311264 0.1074048
v 0.03158116 0.02311264 0.07001199
v -1.10498E-06 0.02311265 0.07001199
v 0.0315817 0.01800593 0.06479254
v -1.10498E-06 0.01800594 0.06479254
v 0.03158169 -0.01800743 0.06479254
v -1.108008E-06 -0.01800743 0.06479254
v -0.003248707 0.006420789 -1.122646E-09
v 0.003195732 -0.006302845 1.102024E-09
v 0.00633533 0.003281192 -5.737018E-10
v -0.006388304 -0.003163247 5.530797E-10
v 0.003195732 -0.006302845 1.102024E-09
v 0.006335331 0.003281195 0.01351962
v 0.00633533 0.003281192 -5.737018E-10
v 0.003195733 -0.006302843 0.01351962
v -0.003248708 0.006420792 0.01351962
v -0.003248707 0.006420789 -1.122646E-09
v -0.006388305 -0.003163245 0.01351962
v -0.006388304 -0.003163247 5.530797E-10
v 0.003195733 -0.006302843 0.01351962
v 0.003195732 -0.006302845 1.102024E-09
v 0.006335331 0.003281197 0.02703923
v 0.003195733 -0.006302841 0.02703923
v -0.003248708 0.006420794 0.02703923
v -0.006388305 -0.003163243 0.02703923
v 0.003195733 -0.006302841 0.02703923
v 0.00633533 0.003281199 0.04055885
v 0.003195732 -0.006302838 0.04055885
v -0.003248707 0.006420796 0.04055885
v -0.006388304 -0.00316324 0.04055885
v 0.003195732 -0.006302838 0.04055885
v 0.006335331 0.003281202 0.05407847
v 0.003195733 -0.006302836 0.05407847
v -0.003248708 0.0064208 0.05407847
v -0.006388305 -0.003163238 0.05407847
v 0.003195733 -0.006302836 0.05407847
v 0.00633533 0.003281204 0.06759808
v 0.003195732 -0.006302833 0.06759808
v -0.003248707 0.006420801 0.06759808
v -0.006388304 -0.003163235 0.06759808
v 0.003195732 -0.006302833 0.06759808

vn -0.829217 -0.483429 -0.2805274
vn -0.2903756 -0.8911328 0.3486608
vn -0.2928961 -0.8896148 -0.3504245
vn -0.8383237 -0.4796537 0.2591248
vn -0.2761391 -0.3560916 0.8927183
vn -0.8433135 -0.1960745 0.500377
vn -0.83636 -0.2166553 -0.5035498
vn -0.2794335 -0.3578212 -0.891
vn -0.8429844 0.1973043 0.500448
vn -0.8362659 0.217125 -0.5035037
vn -0.2761185 0.3560905 0.8927251
vn -0.2793436 0.3577747 -0.8910468
vn -0.8383359 0.4798884 0.2586505
vn -0.2903735 0.8911332 0.3486615
vn -0.2928339 0.8896517 -0.3503829
vn -0.8294758 0.4835253 -0.2795947
vn -0.2928961 -0.8896148 -0.3504245
vn -1.7436E-07 -0.9238806 0.3826809
vn -1.743613E-07 -0.9238812 -0.3826795
vn -0.2903756 -0.8911328 0.3486608
vn 0 -0.382686 0.9238785
vn -0.2761391 -0.3560916 0.8927183
vn -0.2794335 -0.3578212 -0.891
vn 0 -0.3826874 -0.9238779
vn 0 0.3826864 0.9238783
vn -0.2761185 0.3560905 0.8927251
vn -0.2903735 0.8911332 0.3486615
vn 1.7436E-07 0.9238807 0.3826806
vn -0.2928339 0.8896517 -0.3503829
vn 1.743614E-07 0.9238811 -0.3826796
vn -0.2793436 0.3577747 -0.8910468
vn 0 0.382687 -0.9238781
vn -0.2794335 -0.3578212 -0.891
vn 0 -0.3826874 -0.9238779
vn 0.829217 -0.483429 -0.2805274
vn 0.2903754 -0.8911329 0.3486609
vn 0.8383237 -0.4796537 0.2591248
vn 0.2928959 -0.8896149 -0.3504244
vn 0.276139 -0.3560916 0.8927183
vn 0.8433135 -0.1960748 0.5003769
vn 0.83636 -0.2166556 -0.5035496
vn 0.2794334 -0.3578213 -0.891
vn 0.842985 0.1973039 0.5004473
vn 0.8362665 0.2171246 -0.503503
vn 0.2761194 0.3560905 0.8927249
vn 0.2793444 0.3577746 -0.8910466
vn 0.8383363 0.4798878 0.2586502
vn 0.2903741 0.8911331 0.3486614
vn 0.2928347 0.8896515 -0.3503826
vn 0.8294762 0.4835247 -0.2795945
vn 0.2928959 -0.8896149 -0.3504244
vn -1.7436E-07 -0.9238806 0.3826809
vn 0.2903754 -0.8911329 0.3486609
vn -1.743613E-07 -0.9238812 -0.3826795
vn 0 -0.382686 0.9238785
vn 0.276139 -0.3560916 0.8927183
vn 0.2794334 -0.3578213 -0.891
vn 0 -0.3826874 -0.9238779
vn 0 0.3826864 0.9238783
vn 0.2761194 0.3560905 0.8927249
vn 0.2903741 0.8911331 0.3486614
vn 1.7436E-07 0.9238807 0.3826806
vn 0.2928347 0.8896515 -0.3503826
vn 1.743614E-07 0.9238811 -0.3826796
vn 0.2793444 0.3577746 -0.8910466
vn 0 0.382687 -0.9238781
vn 0.2794334 -0.3578213 -0.891
vn 0 -0.3826874 -0.9238779
vn 0 -1.748455E-07 -1
vn 0 -1.748455E-07 -1
vn 0 -1.748455E-07 -1
vn 0 -1.748455E-07 -1
vn 0.4518421 -0.8920979 1.078797E-07
vn 0.892098 0.4518419 -1.042521E-07
vn 0.892098 0.451842 -1.291243E-07
vn 0.451842 -0.892098 1.327518E-07
vn -0.451842 0.892098 -1.818913E-07
vn -0.451842 0.892098 -2.067634E-07
vn -0.8920979 -0.451842 0
vn -0.8920979 -0.451842 0
vn 0.451842 -0.892098 1.327518E-07
vn 0.4518421 -0.8920979 1.078797E-07
vn 0.892098 0.4518419 0
vn 0.4518419 -0.892098 1.820425E-07
vn -0.4518419 0.892098 -1.326006E-07
vn -0.892098 -0.451842 1.044033E-07
vn 0.4518419 -0.892098 1.820425E-07
vn 0.892098 0.4518419 0
vn 0.4518419 -0.892098 1.571704E-07
vn -0.451842 0.892098 -1.574728E-07
vn -0.892098 -0.4518419 0
vn 0.4518419 -0.892098 1.571704E-07
vn 0.892098 0.4518419 0
vn 0.451842 -0.8920979 1.574728E-07
vn -0.451842 0.8920979 -1.571704E-07
vn -0.892098 -0.4518419 0
vn 0.451842 -0.8920979 1.574728E-07
vn 0.892098 0.4518419 0
vn 0.451842 -0.892098 2.064611E-07
vn -0.4518419 0.8920981 -1.081821E-07
vn -0.892098 -0.4518419 1.288219E-07
vn 0.451842 -0.892098 2.064611E-07

vt 0.3356471 0.05203371
vt 0.2971741 0.2532964
vt 0.297175 0.04639789
vt 0.3356498 0.2477494
vt 0.3290886 0.2881156
vt 0.3395683 0.2530007
vt 0.3395715 0.04672846
vt 0.3290912 0.01158473
vt 0.5222321 0.2529984
vt 0.5222182 0.04673025
vt 0.5326769 0.2881163
vt 0.5326732 0.01158437
vt 0.5261136 0.2477509
vt 0.564591 0.2532972
vt 0.564589 0.04639772
vt 0.5261155 0.05203305
vt 0.1044335 0.0582822
vt 0.2851325 0.2560613
vt 0.2851318 0.0582817
vt 0.1044308 0.2560617
vt 0.2851326 0.2951024
vt 0.1044308 0.2951025
vt 0.1044304 0.01924052
vt 0.2851318 0.01924002
vt 0.2851326 0.4897861
vt 0.1044309 0.489786
vt 0.1044308 0.5288251
vt 0.2851325 0.5288253
vt 0.1044338 0.7266017
vt 0.2851321 0.7266019
vt 0.1044307 0.7656415
vt 0.2851321 0.7656416
vt 0.1044307 0.9603261
vt 0.2851321 0.9603261
vt 0.3356471 0.05203371
vt 0.2971741 0.2532964
vt 0.3356498 0.2477494
vt 0.297175 0.04639789
vt 0.3290886 0.2881156
vt 0.3395683 0.2530007
vt 0.3395715 0.04672846
vt 0.3290912 0.01158473
vt 0.5222321 0.2529984
vt 0.5222182 0.04673025
vt 0.5326769 0.2881163
vt 0.5326732 0.01158437
vt 0.5261136 0.2477509
vt 0.564591 0.2532972
vt 0.564589 0.04639772
vt 0.5261155 0.05203305
vt 0.1044335 0.0582822
vt 0.2851325 0.2560613
vt 0.1044308 0.2560617
vt 0.2851318 0.0582817
vt 0.2851326 0.2951024
vt 0.1044308 0.2951025
vt 0.1044304 0.01924052
vt 0.2851318 0.01924002
vt 0.2851326 0.4897861
vt 0.1044309 0.489786
vt 0.1044308 0.5288251
vt 0.2851325 0.5288253
vt 0.1044338 0.7266017
vt 0.2851321 0.7266019
vt 0.1044307 0.7656415
vt 0.2851321 0.7656416
vt 0.1044307 0.9603261
vt 0.2851321 0.9603261
vt 0.25 0
vt -0.25 0
vt 2.980232E-08 0
vt 0.5 0
vt -0.25 0
vt 2.980232E-08 0.2
vt 2.980232E-08 0
vt -0.25 0.2
vt 0.25 0.2
vt 0.25 0
vt 0.5 0.2
vt 0.5 0
vt 0.75 0.2
vt 0.75 0
vt 2.980232E-08 0.4
vt -0.25 0.4
vt 0.25 0.4
vt 0.5 0.4
vt 0.75 0.4
vt 2.980232E-08 0.6
vt -0.25 0.6
vt 0.25 0.6
vt 0.5 0.6
vt 0.75 0.6
vt 2.980232E-08 0.8
vt -0.25 0.8
vt 0.25 0.8
vt 0.5 0.8
vt 0.75 0.8
vt 2.980232E-08 1
vt -0.25 1
vt 0.25 1
vt 0.5 1
vt 0.75 1

g fx_chui_em
usemtl fx_chui_em
usemap fx_chui_em
f 1/1/1 3/3/3 2/2/2
f 2/2/2 4/4/4 1/1/1
f 4/4/4 2/2/2 5/5/5
f 5/5/5 6/6/6 4/4/4
f 3/3/3 1/1/1 7/7/7
f 4/4/4 6/6/6 7/7/7
f 7/7/7 1/1/1 4/4/4
f 7/7/7 8/8/8 3/3/3
f 7/7/7 6/6/6 9/9/9
f 9/9/9 10/10/10 7/7/7
f 11/11/11 9/9/9 6/6/6
f 6/6/6 5/5/5 11/11/11
f 7/7/7 10/10/10 12/12/12
f 12/12/12 8/8/8 7/7/7
f 13/13/13 9/9/9 11/11/11
f 11/11/11 14/14/14 13/13/13
f 13/13/13 14/14/14 15/15/15
f 15/15/15 12/12/12 10/10/10
f 15/15/15 16/16/16 13/13/13
f 10/10/10 16/16/16 15/15/15
f 9/9/9 13/13/13 16/16/16
f 16/16/16 10/10/10 9/9/9
f 17/17/17 19/19/19 18/18/18
f 18/18/18 20/20/20 17/17/17
f 20/20/20 18/18/18 21/21/21
f 21/21/21 22/22/22 20/20/20
f 19/19/19 17/17/17 23/23/23
f 23/23/23 24/24/24 19/19/19
f 22/22/22 21/21/21 25/25/25
f 25/25/25 26/26/26 22/22/22
f 27/27/27 26/26/26 25/25/25
f 25/25/25 28/28/28 27/27/27
f 29/29/29 27/27/27 28/28/28
f 28/28/28 30/30/30 29/29/29
f 31/31/31 29/29/29 30/30/30
f 30/30/30 32/32/32 31/31/31
f 33/33/33 31/31/31 32/32/32
f 32/32/32 34/34/34 33/33/33
f 35/35/35 37/37/37 36/36/36
f 36/36/36 38/38/38 35/35/35
f 39/39/39 36/36/36 37/37/37
f 37/37/37 40/40/40 39/39/39
f 41/41/41 35/35/35 38/38/38
f 37/37/37 35/35/35 41/41/41
f 41/41/41 40/40/40 37/37/37
f 38/38/38 42/42/42 41/41/41
f 43/43/43 40/40/40 41/41/41
f 41/41/41 44/44/44 43/43/43
f 45/45/45 39/39/39 40/40/40
f 40/40/40 43/43/43 45/45/45
f 41/41/41 42/42/42 46/46/46
f 46/46/46 44/44/44 41/41/41
f 45/45/45 43/43/43 47/47/47
f 47/47/47 48/48/48 45/45/45
f 49/49/49 48/48/48 47/47/47
f 44/44/44 46/46/46 49/49/49
f 47/47/47 50/50/50 49/49/49
f 49/49/49 50/50/50 44/44/44
f 43/43/43 44/44/44 50/50/50
f 50/50/50 47/47/47 43/43/43
f 51/51/51 53/53/53 52/52/52
f 52/52/52 54/54/54 51/51/51
f 55/55/55 52/52/52 53/53/53
f 53/53/53 56/56/56 55/55/55
f 57/57/57 51/51/51 54/54/54
f 54/54/54 58/58/58 57/57/57
f 59/59/59 55/55/55 56/56/56
f 56/56/56 60/60/60 59/59/59
f 59/59/59 60/60/60 61/61/61
f 61/61/61 62/62/62 59/59/59
f 62/62/62 61/61/61 63/63/63
f 63/63/63 64/64/64 62/62/62
f 64/64/64 63/63/63 65/65/65
f 65/65/65 66/66/66 64/64/64
f 66/66/66 65/65/65 67/67/67
f 67/67/67 68/68/68 66/66/66
f 69/69/69 71/71/71 70/70/70
f 70/70/70 72/72/72 69/69/69
f 73/73/73 75/75/75 74/74/74
f 74/74/74 76/76/76 73/73/73
f 77/77/77 74/74/74 75/75/75
f 75/75/75 78/78/78 77/77/77
f 79/79/79 77/77/77 78/78/78
f 78/78/78 80/80/80 79/79/79
f 81/81/81 79/79/79 80/80/80
f 80/80/80 82/82/82 81/81/81
f 76/76/76 74/74/74 83/83/83
f 83/83/83 84/84/84 76/76/76
f 74/74/74 77/77/77 85/85/85
f 85/85/85 83/83/83 74/74/74
f 77/77/77 79/79/79 86/86/86
f 86/86/86 85/85/85 77/77/77
f 79/79/79 81/81/81 87/87/87
f 87/87/87 86/86/86 79/79/79
f 84/84/84 83/83/83 88/88/88
f 88/88/88 89/89/89 84/84/84
f 83/83/83 85/85/85 90/90/90
f 90/90/90 88/88/88 83/83/83
f 85/85/85 86/86/86 91/91/91
f 91/91/91 90/90/90 85/85/85
f 86/86/86 87/87/87 92/92/92
f 92/92/92 91/91/91 86/86/86
f 89/89/89 88/88/88 93/93/93
f 93/93/93 94/94/94 89/89/89
f 88/88/88 90/90/90 95/95/95
f 95/95/95 93/93/93 88/88/88
f 90/90/90 91/91/91 96/96/96
f 96/96/96 95/95/95 90/90/90
f 91/91/91 92/92/92 97/97/97
f 97/97/97 96/96/96 91/91/91
f 94/94/94 93/93/93 98/98/98
f 98/98/98 99/99/99 94/94/94
f 93/93/93 95/95/95 100/100/100
f 100/100/100 98/98/98 93/93/93
f 95/95/95 96/96/96 101/101/101
f 101/101/101 100/100/100 95/95/95
f 96/96/96 97/97/97 102/102/102
f 102/102/102 101/101/101 96/96/96
