#p_public_jianbian001.obj

v -1.10921 -0.4276316 0
v -1.10921 -0.256579 0
v 0 -0.256579 0
v 0 -0.4276316 0
v 1.10921 -0.256579 0
v 1.10921 -0.4276316 0
v 0 -0.08552631 0
v -1.10921 -0.08552631 0
v 1.10921 -0.08552631 0
v 0 0.08552633 0
v -1.10921 0.08552633 0
v 1.10921 0.08552633 0
v 0 0.256579 0
v -1.10921 0.256579 0
v 1.10921 0.256579 0
v 0 0.4276316 0
v -1.10921 0.4276316 0
v 1.10921 0.4276316 0

vn 0 0 1
vn 0 0 1
vn 0 0 1
vn 0 0 1
vn 0 0 1
vn 0 0 1
vn 0 0 1
vn 0 0 1
vn 0 0 1
vn 0 0 1
vn 0 0 1
vn 0 0 1
vn 0 0 1
vn 0 0 1
vn 0 0 1
vn 0 0 1
vn 0 0 1
vn 0 0 1

vt 0 0
vt 0 0.1999512
vt 0.5 0.1999512
vt 0.5 0
vt 1 0.1999512
vt 1 0
vt 0.5 0.3999023
vt 0 0.3999023
vt 1 0.3999023
vt 0.5 0.6000977
vt 0 0.6000977
vt 1 0.6000977
vt 0.5 0.7998047
vt 0 0.7998047
vt 1 0.7998047
vt 0.5 1
vt 0 1
vt 1 1

g p_public_jianbian001
usemtl p_public_jianbian001
usemap p_public_jianbian001
f 1/1/1 3/3/3 2/2/2
f 1/1/1 4/4/4 3/3/3
f 4/4/4 5/5/5 3/3/3
f 4/4/4 6/6/6 5/5/5
f 2/2/2 3/3/3 7/7/7
f 2/2/2 7/7/7 8/8/8
f 3/3/3 9/9/9 7/7/7
f 3/3/3 5/5/5 9/9/9
f 8/8/8 7/7/7 10/10/10
f 8/8/8 10/10/10 11/11/11
f 7/7/7 12/12/12 10/10/10
f 7/7/7 9/9/9 12/12/12
f 11/11/11 10/10/10 13/13/13
f 11/11/11 13/13/13 14/14/14
f 10/10/10 15/15/15 13/13/13
f 10/10/10 12/12/12 15/15/15
f 14/14/14 13/13/13 16/16/16
f 14/14/14 16/16/16 17/17/17
f 13/13/13 18/18/18 16/16/16
f 13/13/13 15/15/15 18/18/18
