#p_zidan_fly00.obj

v -0.0001972961 -0.3488064 3.049362E-08
v -0.03746759 -0.1744032 1.524681E-08
v -0.02505718 -0.3488064 3.049362E-08
v -0.0004314613 -0.1744032 1.524681E-08
v -0.07450373 -0.1744032 1.524681E-08
v -0.04991705 -0.3488064 3.049362E-08
v -0.1115399 -0.1744032 1.524681E-08
v -0.07477692 -0.3488064 3.049362E-08
v -0.05254053 -9.226823E-11 8.066345E-18
v -0.0001403904 -9.226823E-11 8.066345E-18
v -0.1049407 -9.226823E-11 8.066345E-18
v -0.1573408 3.842378E-08 -3.359113E-15
v -0.05331741 0.08720161 -7.623407E-09
v 0.001057415 0.0872016 -7.623405E-09
v -0.04878688 0.1744032 -1.524681E-08
v 0.0009207058 0.1744032 -1.524681E-08
v -0.09849445 0.1744032 -1.524681E-08
v -0.1076922 0.08720158 -7.623404E-09
v -0.148202 0.1744032 -1.524681E-08
v -0.1620671 0.08720161 -7.623407E-09
v -0.03843257 0.2325376 -2.032908E-08
v 0.0009128952 0.2325376 -2.032908E-08
v -0.02370399 0.2876971 -2.515128E-08
v 0.0006438827 0.2876971 -2.515128E-08
v -0.04805186 0.2876971 -2.515128E-08
v -0.07777803 0.2325376 -2.032908E-08
v -0.07239971 0.2876971 -2.515128E-08
v -0.1171235 0.2325376 -2.032908E-08
v -0.0003778744 0.3191504 -2.790101E-08
v 8.749008E-05 0.3191504 -2.790101E-08
v -0.0008432388 0.3191504 -2.790101E-08
v -0.001308594 0.3191504 -2.790101E-08
v -0.000201416 -0.5891395 5.150421E-08
v -0.01901455 -0.5668136 4.955242E-08
v -0.03782766 -0.5405101 4.72529E-08
v -0.000201416 -0.5891395 5.150421E-08
v -0.02505718 -0.3488064 3.049362E-08
v -0.01901455 -0.5668136 4.955242E-08
v -0.01901455 -0.5668136 4.955242E-08
v -0.04991705 -0.3488064 3.049362E-08
v -0.03782766 -0.5405101 4.72529E-08
v -0.03782766 -0.5405101 4.72529E-08
v -0.07477692 -0.3488064 3.049362E-08
v -0.04989808 -0.5095143 4.454315E-08
v 0.0002147102 -0.3488064 3.049362E-08
v 0.03748502 -0.1744032 1.524681E-08
v 0.000448885 -0.1744032 1.524681E-08
v 0.0250746 -0.3488064 3.049362E-08
v 0.07452116 -0.1744032 1.524681E-08
v 0.04993446 -0.3488064 3.049362E-08
v 0.1115573 -0.1744032 1.524681E-08
v 0.07479433 -0.3488064 3.049362E-08
v 0.05255795 -9.226823E-11 8.066345E-18
v 0.000157814 -9.226823E-11 8.066345E-18
v 0.1049581 -9.226823E-11 8.066345E-18
v 0.1573582 3.842378E-08 -3.359113E-15
v 0.05333482 0.08720161 -7.623407E-09
v -0.001040001 0.0872016 -7.623405E-09
v 0.0488043 0.1744032 -1.524681E-08
v -0.0009032917 0.1744032 -1.524681E-08
v 0.09851187 0.1744032 -1.524681E-08
v 0.1077097 0.08720158 -7.623404E-09
v 0.1482195 0.1744032 -1.524681E-08
v 0.1620845 0.08720161 -7.623407E-09
v 0.03844999 0.2325376 -2.032908E-08
v -0.0008954811 0.2325376 -2.032908E-08
v 0.02372141 0.2876971 -2.515128E-08
v -0.0006264686 0.2876971 -2.515128E-08
v 0.04806926 0.2876971 -2.515128E-08
v 0.07779545 0.2325376 -2.032908E-08
v 0.07241713 0.2876971 -2.515128E-08
v 0.1171409 0.2325376 -2.032908E-08
v 0.0003952885 0.3191504 -2.790101E-08
v -7.007598E-05 0.3191504 -2.790101E-08
v 0.0008606529 0.3191504 -2.790101E-08
v 0.001326008 0.3191504 -2.790101E-08
v 0.0250746 -0.3488064 3.049362E-08
v 0.0002188301 -0.5891395 5.150421E-08
v 0.01903196 -0.5668136 4.955242E-08
v 0.0002188301 -0.5891395 5.150421E-08
v 0.01903196 -0.5668136 4.955242E-08
v 0.03784508 -0.5405101 4.72529E-08
v 0.04993446 -0.3488064 3.049362E-08
v 0.01903196 -0.5668136 4.955242E-08
v 0.03784508 -0.5405101 4.72529E-08
v 0.07479433 -0.3488064 3.049362E-08
v 0.03784508 -0.5405101 4.72529E-08
v 0.04991549 -0.5095143 4.454315E-08

vn 0 0 -1
vn 0 0 -1
vn 0 0 -1
vn 0 0 -1
vn 0 0 -1
vn 0 0 -1
vn 0 0 -1
vn 0 0 -1
vn 0 0 -1
vn 0 0 -1
vn 0 0 -1
vn 0 0 -1
vn 0 0 -1
vn 0 0 -1
vn 0 0 -1
vn 0 0 -1
vn 0 0 -1
vn 0 0 -1
vn 0 0 -1
vn 0 0 -1
vn 0 0 -1
vn 0 0 -1
vn 0 0 -1
vn 0 0 -1
vn 0 0 -1
vn 0 0 -1
vn 0 0 -1
vn 0 0 -1
vn 0 0 -1
vn 0 0 -1
vn 0 0 -1
vn 0 0 -1
vn 0 0 -1
vn 0 0 -1
vn 0 0 -1
vn 0 0 -1
vn 0 0 -1
vn 0 0 -1
vn 0 0 -1
vn 0 0 -1
vn 0 0 -1
vn 0 0 -1
vn 0 0 -1
vn 0 0 -1
vn 0 0 -1
vn 0 0 -1
vn 0 0 -1
vn 0 0 -1
vn 0 0 -1
vn 0 0 -1
vn 0 0 -1
vn 0 0 -1
vn 0 0 -1
vn 0 0 -1
vn 0 0 -1
vn 0 0 -1
vn 0 0 -1
vn 0 0 -1
vn 0 0 -1
vn 0 0 -1
vn 0 0 -1
vn 0 0 -1
vn 0 0 -1
vn 0 0 -1
vn 0 0 -1
vn 0 0 -1
vn 0 0 -1
vn 0 0 -1
vn 0 0 -1
vn 0 0 -1
vn 0 0 -1
vn 0 0 -1
vn 0 0 -1
vn 0 0 -1
vn 0 0 -1
vn 0 0 -1
vn 0 0 -1
vn 0 0 -1
vn 0 0 -1
vn 0 0 -1
vn 0 0 -1
vn 0 0 -1
vn 0 0 -1
vn 0 0 -1
vn 0 0 -1
vn 0 0 -1
vn 0 0 -1
vn 0 0 -1

vt 0 0.1911621
vt 0.333252 0.3935547
vt 0.333252 0.1911621
vt 0 0.3935547
vt 0.6665039 0.3935547
vt 0.6665039 0.1911621
vt 1 0.3935547
vt 1 0.1911621
vt 0.333252 0.5961914
vt 0 0.5961914
vt 0.6665039 0.5961914
vt 1 0.5961914
vt 0.333252 0.6972656
vt 0 0.6972656
vt 0.333252 0.7988281
vt 0 0.7988281
vt 0.6665039 0.7988281
vt 0.6665039 0.6972656
vt 1 0.7988281
vt 1 0.6972656
vt 0.333252 0.8662109
vt 0 0.8662109
vt 0.333252 0.9335938
vt 0 0.9335938
vt 0.6665039 0.9335938
vt 0.6665039 0.8662109
vt 1 0.9335938
vt 1 0.8662109
vt 0.333252 1.000977
vt 0 1.000977
vt 0.6665039 1.000977
vt 1 1.000977
vt 0 0.000118494
vt 0.333252 0.000118494
vt 0.6665039 0.000118494
vt 0 0.000118494
vt 0.333252 0.1911621
vt 0.333252 0.000118494
vt 0.333252 0.000118494
vt 0.6665039 0.1911621
vt 0.6665039 0.000118494
vt 0.6665039 0.000118494
vt 1 0.1911621
vt 1 0.000118494
vt 0 0.1911621
vt 0.333252 0.3935547
vt 0 0.3935547
vt 0.333252 0.1911621
vt 0.6665039 0.3935547
vt 0.6665039 0.1911621
vt 1 0.3935547
vt 1 0.1911621
vt 0.333252 0.5961914
vt 0 0.5961914
vt 0.6665039 0.5961914
vt 1 0.5961914
vt 0.333252 0.6972656
vt 0 0.6972656
vt 0.333252 0.7988281
vt 0 0.7988281
vt 0.6665039 0.7988281
vt 0.6665039 0.6972656
vt 1 0.7988281
vt 1 0.6972656
vt 0.333252 0.8662109
vt 0 0.8662109
vt 0.333252 0.9335938
vt 0 0.9335938
vt 0.6665039 0.9335938
vt 0.6665039 0.8662109
vt 1 0.9335938
vt 1 0.8662109
vt 0.333252 1.000977
vt 0 1.000977
vt 0.6665039 1.000977
vt 1 1.000977
vt 0.333252 0.1911621
vt 0 0.000118494
vt 0.333252 0.000118494
vt 0 0.000118494
vt 0.333252 0.000118494
vt 0.6665039 0.000118494
vt 0.6665039 0.1911621
vt 0.333252 0.000118494
vt 0.6665039 0.000118494
vt 1 0.1911621
vt 0.6665039 0.000118494
vt 1 0.000118494

g p_zidan_fly00
usemtl p_zidan_fly00
usemap p_zidan_fly00
f 1/1/1 3/3/3 2/2/2
f 2/2/2 4/4/4 1/1/1
f 5/5/5 2/2/2 3/3/3
f 3/3/3 6/6/6 5/5/5
f 7/7/7 5/5/5 6/6/6
f 6/6/6 8/8/8 7/7/7
f 4/4/4 2/2/2 9/9/9
f 9/9/9 10/10/10 4/4/4
f 2/2/2 5/5/5 11/11/11
f 11/11/11 9/9/9 2/2/2
f 5/5/5 7/7/7 12/12/12
f 12/12/12 11/11/11 5/5/5
f 10/10/10 9/9/9 13/13/13
f 13/13/13 14/14/14 10/10/10
f 14/14/14 13/13/13 15/15/15
f 15/15/15 16/16/16 14/14/14
f 17/17/17 15/15/15 13/13/13
f 13/13/13 18/18/18 17/17/17
f 9/9/9 11/11/11 18/18/18
f 18/18/18 13/13/13 9/9/9
f 19/19/19 17/17/17 18/18/18
f 18/18/18 20/20/20 19/19/19
f 11/11/11 12/12/12 20/20/20
f 20/20/20 18/18/18 11/11/11
f 16/16/16 15/15/15 21/21/21
f 21/21/21 22/22/22 16/16/16
f 22/22/22 21/21/21 23/23/23
f 23/23/23 24/24/24 22/22/22
f 25/25/25 23/23/23 21/21/21
f 21/21/21 26/26/26 25/25/25
f 15/15/15 17/17/17 26/26/26
f 26/26/26 21/21/21 15/15/15
f 27/27/27 25/25/25 26/26/26
f 26/26/26 28/28/28 27/27/27
f 17/17/17 19/19/19 28/28/28
f 28/28/28 26/26/26 17/17/17
f 24/24/24 23/23/23 29/29/29
f 29/29/29 30/30/30 24/24/24
f 31/31/31 29/29/29 23/23/23
f 23/23/23 25/25/25 31/31/31
f 32/32/32 31/31/31 25/25/25
f 25/25/25 27/27/27 32/32/32
f 3/3/3 1/1/1 33/33/33
f 6/6/6 3/3/3 34/34/34
f 8/8/8 6/6/6 35/35/35
f 36/36/36 38/38/38 37/37/37
f 39/39/39 41/41/41 40/40/40
f 42/42/42 44/44/44 43/43/43
f 45/45/45 47/47/47 46/46/46
f 46/46/46 48/48/48 45/45/45
f 48/48/48 46/46/46 49/49/49
f 49/49/49 50/50/50 48/48/48
f 50/50/50 49/49/49 51/51/51
f 51/51/51 52/52/52 50/50/50
f 53/53/53 46/46/46 47/47/47
f 47/47/47 54/54/54 53/53/53
f 46/46/46 53/53/53 55/55/55
f 55/55/55 49/49/49 46/46/46
f 49/49/49 55/55/55 56/56/56
f 56/56/56 51/51/51 49/49/49
f 57/57/57 53/53/53 54/54/54
f 54/54/54 58/58/58 57/57/57
f 59/59/59 57/57/57 58/58/58
f 58/58/58 60/60/60 59/59/59
f 57/57/57 59/59/59 61/61/61
f 61/61/61 62/62/62 57/57/57
f 53/53/53 57/57/57 62/62/62
f 62/62/62 55/55/55 53/53/53
f 62/62/62 61/61/61 63/63/63
f 63/63/63 64/64/64 62/62/62
f 55/55/55 62/62/62 64/64/64
f 64/64/64 56/56/56 55/55/55
f 65/65/65 59/59/59 60/60/60
f 60/60/60 66/66/66 65/65/65
f 67/67/67 65/65/65 66/66/66
f 66/66/66 68/68/68 67/67/67
f 65/65/65 67/67/67 69/69/69
f 69/69/69 70/70/70 65/65/65
f 59/59/59 65/65/65 70/70/70
f 70/70/70 61/61/61 59/59/59
f 70/70/70 69/69/69 71/71/71
f 71/71/71 72/72/72 70/70/70
f 61/61/61 70/70/70 72/72/72
f 72/72/72 63/63/63 61/61/61
f 73/73/73 67/67/67 68/68/68
f 68/68/68 74/74/74 73/73/73
f 75/75/75 69/69/69 67/67/67
f 67/67/67 73/73/73 75/75/75
f 76/76/76 71/71/71 69/69/69
f 69/69/69 75/75/75 76/76/76
f 77/77/77 79/79/79 78/78/78
f 80/80/80 45/45/45 48/48/48
f 81/81/81 48/48/48 50/50/50
f 82/82/82 50/50/50 52/52/52
f 83/83/83 85/85/85 84/84/84
f 86/86/86 88/88/88 87/87/87
