#baoshizhizhen.obj

v -0.02838458 -0.004605148 0.550753
v -0.009348022 0.01145908 0.4784101
v -0.02041535 0.01948427 0.5504214
v -0.009348022 0.01145908 0.4784101
v -0.02838458 -0.004605148 0.550753
v -0.006501957 -4.645181E-10 0.4405137
v -0.001475777 -3.179029E-10 0.6169412
v -0.008144664 -3.947093E-10 0.6041828
v -0.004984986 0.004757635 0.6055079
v -0.0178835 -0.02728917 0.5447637
v -0.006501957 -4.645181E-10 0.4405137
v -0.02838458 -0.004605148 0.550753
v -0.008257472 -0.009900144 0.4551019
v -0.001475777 -3.179029E-10 0.6169412
v -0.002694397 -0.008664527 0.6075984
v -0.006365305 -0.005681843 0.5999745
v 0.02491122 0.01928954 0.5347571
v 0.02312914 0.0196941 0.5505138
v 0.001368965 0.03542853 0.5500571
v -0.001475777 -3.179029E-10 0.6169412
v 0.0002912557 0.007537633 0.6077205
v 0.007027117 0.002623925 0.6097145
v 0.03125449 -0.01576137 0.550753
v 0.001245015 -0.00422057 0.4344946
v 0.01352019 -0.03375808 0.5502022
v 2.608176E-10 -0.02523197 0.4920651
v 0.001245015 -0.00422057 0.4344946
v 0 -5.960464E-10 0.420162
v 0.001245015 -0.00422057 0.4344946
v 0.03125449 -0.01576137 0.550753
v 0.003069216 3.913861E-05 0.4242179
v -0.001475777 -3.179029E-10 0.6169412
v 0.008464358 0.0001406751 0.6103172
v 0.001986644 -0.006734672 0.6084315
v -0.001475777 -3.179029E-10 0.6169412
v 0.001986644 -0.006734672 0.6084315
v -0.002694397 -0.008664527 0.6075984
v 0.01352019 -0.03375808 0.5502022
v 2.608176E-10 -0.02523197 0.4920651
v -0.00514551 -0.03614518 0.5500571
v -0.001475777 -3.179029E-10 0.6169412
v 0.007027117 0.002623925 0.6097145
v 0.008464358 0.0001406751 0.6103172
v 0.02312914 0.0196941 0.5505138
v 0.02491122 0.01928954 0.5347571
v 0.03125449 -0.01576137 0.550753
v 0.003069216 3.913861E-05 0.4242179
v 0.01407828 0.009207496 0.4748424
v 0.002800798 0.0007274452 0.4238302
v 0.03125449 -0.01576137 0.550753
v 0.01407828 0.009207496 0.4748424
v 0.003069216 3.913861E-05 0.4242179
v 0.03125449 -0.01576137 0.550753
v 0.02491122 0.01928954 0.5347571
v 0.01407828 0.009207496 0.4748424
v 0.001368965 0.03542853 0.5500571
v 0.01407828 0.009207496 0.4748424
v 0.02491122 0.01928954 0.5347571
v 0.01407828 0.009207496 0.4748424
v 0.001368965 0.03542853 0.5500571
v 0.0004484719 0.01193348 0.4609832
v -0.001475777 -3.179029E-10 0.6169412
v -0.004984986 0.004757635 0.6055079
v 0.0002912557 0.007537633 0.6077205
v -0.02041535 0.01948427 0.5504214
v 0.0004484719 0.01193348 0.4609832
v 0.001368965 0.03542853 0.5500571
v 0.0004484719 0.01193348 0.4609832
v -0.009348022 0.01145908 0.4784101
v -0.006501957 -4.645181E-10 0.4405137
v 0 -5.960464E-10 0.420162
v -0.02041535 0.01948427 0.5504214
v -0.009348022 0.01145908 0.4784101
v 0.0004484719 0.01193348 0.4609832
v -0.001475777 -3.179029E-10 0.6169412
v -0.006365305 -0.005681843 0.5999745
v -0.008144664 -3.947093E-10 0.6041828
v 2.608176E-10 -0.02523197 0.4920651
v -0.0178835 -0.02728917 0.5447637
v -0.00514551 -0.03614518 0.5500571
v -0.008257472 -0.009900144 0.4551019
v -0.02041535 0.01948427 0.5504214
v -0.008144664 -3.947093E-10 0.6041828
v -0.02838458 -0.004605148 0.550753
v -0.008144664 -3.947093E-10 0.6041828
v -0.02041535 0.01948427 0.5504214
v -0.004984986 0.004757635 0.6055079
v -0.0178835 -0.02728917 0.5447637
v -0.002694397 -0.008664527 0.6075984
v -0.00514551 -0.03614518 0.5500571
v -0.002694397 -0.008664527 0.6075984
v -0.0178835 -0.02728917 0.5447637
v -0.006365305 -0.005681843 0.5999745
v 0.0002912557 0.007537633 0.6077205
v 0.02312914 0.0196941 0.5505138
v 0.007027117 0.002623925 0.6097145
v 0.02312914 0.0196941 0.5505138
v 0.0002912557 0.007537633 0.6077205
v 0.001368965 0.03542853 0.5500571
v 0.008464358 0.0001406751 0.6103172
v 0.01352019 -0.03375808 0.5502022
v 0.001986644 -0.006734672 0.6084315
v 0.01352019 -0.03375808 0.5502022
v 0.008464358 0.0001406751 0.6103172
v 0.03125449 -0.01576137 0.550753
v -0.002694397 -0.008664527 0.6075984
v 0.01352019 -0.03375808 0.5502022
v -0.00514551 -0.03614518 0.5500571
v 0.01352019 -0.03375808 0.5502022
v -0.002694397 -0.008664527 0.6075984
v 0.001986644 -0.006734672 0.6084315
v 0.02312914 0.0196941 0.5505138
v 0.008464358 0.0001406751 0.6103172
v 0.007027117 0.002623925 0.6097145
v 0.008464358 0.0001406751 0.6103172
v 0.02312914 0.0196941 0.5505138
v 0.03125449 -0.01576137 0.550753
v -0.02041535 0.01948427 0.5504214
v 0.0002912557 0.007537633 0.6077205
v -0.004984986 0.004757635 0.6055079
v 0.001368965 0.03542853 0.5500571
v -0.008144664 -3.947093E-10 0.6041828
v -0.0178835 -0.02728917 0.5447637
v -0.02838458 -0.004605148 0.550753
v -0.0178835 -0.02728917 0.5447637
v -0.008144664 -3.947093E-10 0.6041828
v -0.006365305 -0.005681843 0.5999745
v 0.0004484719 0.01193348 0.4609832
v 0.002800798 0.0007274452 0.4238302
v 0.01407828 0.009207496 0.4748424
v 0.002800798 0.0007274452 0.4238302
v 0.0004484719 0.01193348 0.4609832
v 0 -5.960464E-10 0.420162
v 0.001245015 -0.00422057 0.4344946
v 0.003069216 3.913861E-05 0.4242179
v 0 -5.960464E-10 0.420162
v 0.003069216 3.913861E-05 0.4242179
v 0.002800798 0.0007274452 0.4238302
v 0 -5.960464E-10 0.420162
v -0.006501957 -4.645181E-10 0.4405137
v -0.008257472 -0.009900144 0.4551019
v 0 -5.960464E-10 0.420162
v -0.008257472 -0.009900144 0.4551019
v 2.608176E-10 -0.02523197 0.4920651
v 0 -5.960464E-10 0.420162

vn -0.9350586 0.3068848 -0.1778564
vn -0.9350586 0.3068848 -0.1778564
vn -0.9350586 0.3068848 -0.1778564
vn -0.8574219 0.5014648 -0.1143799
vn -0.8574219 0.5014648 -0.1143799
vn -0.8574219 0.5014648 -0.1143799
vn -0.8051758 0.4174805 0.4208984
vn -0.8051758 0.4174805 0.4208984
vn -0.8051758 0.4174805 0.4208984
vn -0.9125977 -0.3769531 -0.1589355
vn -0.9291992 -0.3383789 -0.1500244
vn -0.9111328 -0.3796387 -0.159668
vn -0.9394531 -0.3115234 -0.1435547
vn -0.9077148 -0.2416992 0.3425293
vn -0.9077148 -0.2416992 0.3425293
vn -0.9077148 -0.2416992 0.3425293
vn 0.5849609 0.8100586 0.04534912
vn 0.5849609 0.8100586 0.04534912
vn 0.5849609 0.8100586 0.04534912
vn 0.3234863 0.7011719 0.6352539
vn 0.3234863 0.7011719 0.6352539
vn 0.3234863 0.7011719 0.6352539
vn 0.6943359 -0.6762695 -0.2463379
vn 0.7568359 -0.609375 -0.2358398
vn 0.7109375 -0.659668 -0.2437744
vn 0.7954102 -0.5595703 -0.2337646
vn 0.7954102 -0.5595703 -0.2337646
vn 0.7954102 -0.5595703 -0.2337646
vn 0.5712891 -0.7890625 -0.225708
vn 0.5712891 -0.7890625 -0.225708
vn 0.5712891 -0.7890625 -0.225708
vn 0.4482422 -0.6030273 0.659668
vn 0.4482422 -0.6030273 0.659668
vn 0.4482422 -0.6030273 0.659668
vn 0.1854248 -0.7324219 0.6552734
vn 0.1854248 -0.7324219 0.6552734
vn 0.1854248 -0.7324219 0.6552734
vn 0.1270752 -0.987793 -0.09246826
vn 0.1270752 -0.987793 -0.09246826
vn 0.1270752 -0.987793 -0.09246826
vn 0.4873047 0.4619141 0.7412109
vn 0.4873047 0.4619141 0.7412109
vn 0.4873047 0.4619141 0.7412109
vn 0.9692383 0.2227783 0.1038818
vn 0.9692383 0.2227783 0.1038818
vn 0.9692383 0.2227783 0.1038818
vn 0.9418945 0.2286377 -0.2462158
vn 0.9418945 0.2286377 -0.2462158
vn 0.9418945 0.2286377 -0.2462158
vn 0.9765625 0.01686096 -0.215332
vn 0.9765625 0.01686096 -0.215332
vn 0.9765625 0.01686096 -0.215332
vn 0.9775391 0.08935547 -0.1917725
vn 0.9775391 0.08935547 -0.1917725
vn 0.9775391 0.08935547 -0.1917725
vn 0.4462891 0.8657227 -0.2264404
vn 0.4462891 0.8657227 -0.2264404
vn 0.4462891 0.8657227 -0.2264404
vn 0.625 0.7636719 -0.1606445
vn 0.625 0.7636719 -0.1606445
vn 0.625 0.7636719 -0.1606445
vn -0.5571289 0.6918945 0.4589844
vn -0.5571289 0.6918945 0.4589844
vn -0.5571289 0.6918945 0.4589844
vn -0.5849609 0.7958984 -0.1546631
vn -0.5849609 0.7958984 -0.1546631
vn -0.5849609 0.7958984 -0.1546631
vn -0.6918945 0.6928711 -0.2034912
vn -0.71875 0.6738281 -0.1724854
vn -0.612793 0.7368164 -0.2854004
vn -0.581543 0.75 -0.314209
vn -0.7314453 0.65625 -0.1855469
vn -0.7314453 0.65625 -0.1855469
vn -0.7314453 0.65625 -0.1855469
vn -0.7529297 -0.5273438 0.3935547
vn -0.7529297 -0.5273438 0.3935547
vn -0.7529297 -0.5273438 0.3935547
vn -0.6713867 -0.7158203 -0.1903076
vn -0.5571289 -0.8173828 -0.1461182
vn -0.5273438 -0.8388672 -0.1348877
vn -0.6870117 -0.6992188 -0.1965332
vn -0.8999023 0.302002 0.3149414
vn -0.8999023 0.302002 0.3149414
vn -0.8999023 0.302002 0.3149414
vn -0.8222656 0.4484863 0.3503418
vn -0.8222656 0.4484863 0.3503418
vn -0.8222656 0.4484863 0.3503418
vn -0.6289063 -0.690918 0.3566895
vn -0.6289063 -0.690918 0.3566895
vn -0.6289063 -0.690918 0.3566895
vn -0.8979492 -0.3129883 0.3098145
vn -0.8979492 -0.3129883 0.3098145
vn -0.8979492 -0.3129883 0.3098145
vn 0.4775391 0.8012695 0.3608398
vn 0.4775391 0.8012695 0.3608398
vn 0.4775391 0.8012695 0.3608398
vn 0.5380859 0.7548828 0.3752441
vn 0.5380859 0.7548828 0.3752441
vn 0.5380859 0.7548828 0.3752441
vn 0.5942383 -0.6782227 0.432373
vn 0.5942383 -0.6782227 0.432373
vn 0.5942383 -0.6782227 0.432373
vn 0.6411133 -0.6445313 0.4172363
vn 0.6411133 -0.6445313 0.4172363
vn 0.6411133 -0.6445313 0.4172363
vn 0.1116333 -0.8984375 0.4243164
vn 0.1116333 -0.8984375 0.4243164
vn 0.1116333 -0.8984375 0.4243164
vn 0.2712402 -0.8515625 0.4489746
vn 0.2712402 -0.8515625 0.4489746
vn 0.2712402 -0.8515625 0.4489746
vn 0.7661133 0.53125 0.3615723
vn 0.7661133 0.53125 0.3615723
vn 0.7661133 0.53125 0.3615723
vn 0.9296875 0.2150879 0.2983398
vn 0.9296875 0.2150879 0.2983398
vn 0.9296875 0.2150879 0.2983398
vn -0.5478516 0.7568359 0.355957
vn -0.5478516 0.7568359 0.355957
vn -0.5478516 0.7568359 0.355957
vn -0.5478516 0.7568359 0.355957
vn -0.8125 -0.4680176 0.3481445
vn -0.8125 -0.4680176 0.3481445
vn -0.8125 -0.4680176 0.3481445
vn -0.7783203 -0.5126953 0.3630371
vn -0.7783203 -0.5126953 0.3630371
vn -0.7783203 -0.5126953 0.3630371
vn 0.6811523 0.6826172 -0.2641602
vn 0.6811523 0.6826172 -0.2641602
vn 0.6811523 0.6826172 -0.2641602
vn 0.2692871 0.8842773 -0.3811035
vn 0.2692871 0.8842773 -0.3811035
vn 0.2692871 0.8842773 -0.3811035
vn 0.3955078 -0.8710938 -0.2910156
vn 0.3955078 -0.8710938 -0.2910156
vn 0.3955078 -0.8710938 -0.2910156
vn 0.7973633 -0.02877808 -0.6030273
vn 0.7973633 -0.02877808 -0.6030273
vn 0.7973633 -0.02877808 -0.6030273
vn -0.6889648 -0.621582 -0.3723145
vn -0.6889648 -0.621582 -0.3723145
vn -0.6889648 -0.621582 -0.3723145
vn -0.4001465 -0.8457031 -0.3535156
vn -0.4001465 -0.8457031 -0.3535156
vn -0.4001465 -0.8457031 -0.3535156

vt -0.5048828 0.9287109
vt -0.4394531 0.9790039
vt -0.4980469 0.9599609
vt -0.4394531 0.9790039
vt -0.5048828 0.9287109
vt -0.4094238 0.9833984
vt -0.5585938 0.9946289
vt -0.5444336 0.9775391
vt -0.543457 0.9863281
vt 0.5004883 0.9536133
vt 0.590332 0.9833984
vt 0.4953613 0.9287109
vt 0.5795898 0.9833984
vt 0.4416504 0.9946289
vt 0.4560547 0.9946289
vt 0.454834 0.9858398
vt -0.4943848 0.9521484
vt -0.5 0.9511719
vt -0.4909668 0.9946289
vt -0.5585938 0.9946289
vt -0.5439453 0.9946289
vt -0.5473633 0.9868164
vt -0.5048828 0.9287109
vt -0.4030762 0.9931641
vt -0.4938965 0.980957
vt -0.470459 0.9946289
vt -0.4030762 0.9931641
vt -0.3896484 0.9946289
vt -0.4030762 0.9931641
vt -0.5048828 0.9287109
vt -0.3955078 0.9916992
vt -0.5585938 0.9946289
vt -0.5488281 0.9829102
vt -0.5454102 0.9921875
vt -0.5585938 0.9946289
vt -0.5454102 0.9921875
vt -0.5439453 0.9946289
vt -0.4938965 0.980957
vt -0.470459 0.9946289
vt -0.4909668 0.9946289
vt -0.5585938 0.9946289
vt -0.5473633 0.9868164
vt -0.5488281 0.9829102
vt -0.5 0.9511719
vt -0.4943848 0.9521484
vt -0.5048828 0.9287109
vt -0.3955078 0.9916992
vt -0.440918 0.9741211
vt -0.3952637 0.9926758
vt -0.5048828 0.9287109
vt -0.440918 0.9741211
vt -0.3955078 0.9916992
vt -0.5048828 0.9287109
vt -0.4943848 0.9521484
vt -0.440918 0.9741211
vt -0.4909668 0.9946289
vt -0.440918 0.9741211
vt -0.4943848 0.9521484
vt -0.440918 0.9741211
vt -0.4909668 0.9946289
vt -0.4228516 0.9946289
vt -0.5585938 0.9946289
vt -0.543457 0.9863281
vt -0.5439453 0.9946289
vt -0.4980469 0.9599609
vt -0.4228516 0.9946289
vt -0.4909668 0.9946289
vt -0.4228516 0.9946289
vt -0.4394531 0.9790039
vt -0.4094238 0.9833984
vt -0.3896484 0.9946289
vt -0.4980469 0.9599609
vt -0.4394531 0.9790039
vt -0.4228516 0.9946289
vt 0.4416504 0.9946289
vt 0.454834 0.9858398
vt 0.4558105 0.9775391
vt 0.5297852 0.9946289
vt 0.5004883 0.9536133
vt 0.5087891 0.9946289
vt 0.5795898 0.9833984
vt -0.4980469 0.9599609
vt -0.5444336 0.9775391
vt -0.5048828 0.9287109
vt -0.5444336 0.9775391
vt -0.4980469 0.9599609
vt -0.543457 0.9863281
vt 0.5004883 0.9536133
vt 0.4560547 0.9946289
vt 0.5087891 0.9946289
vt 0.4560547 0.9946289
vt 0.5004883 0.9536133
vt 0.454834 0.9858398
vt -0.5439453 0.9946289
vt -0.5 0.9511719
vt -0.5473633 0.9868164
vt -0.5 0.9511719
vt -0.5439453 0.9946289
vt -0.4909668 0.9946289
vt -0.5488281 0.9829102
vt -0.4938965 0.980957
vt -0.5454102 0.9921875
vt -0.4938965 0.980957
vt -0.5488281 0.9829102
vt -0.5048828 0.9287109
vt -0.5439453 0.9946289
vt -0.4938965 0.980957
vt -0.4909668 0.9946289
vt -0.4938965 0.980957
vt -0.5439453 0.9946289
vt -0.5454102 0.9921875
vt -0.5 0.9511719
vt -0.5488281 0.9829102
vt -0.5473633 0.9868164
vt -0.5488281 0.9829102
vt -0.5 0.9511719
vt -0.5048828 0.9287109
vt -0.4980469 0.9599609
vt -0.5439453 0.9946289
vt -0.543457 0.9863281
vt -0.4909668 0.9946289
vt 0.4558105 0.9775391
vt 0.5004883 0.9536133
vt 0.4953613 0.9287109
vt 0.5004883 0.9536133
vt 0.4558105 0.9775391
vt 0.454834 0.9858398
vt -0.4228516 0.9946289
vt -0.3952637 0.9926758
vt -0.440918 0.9741211
vt -0.3952637 0.9926758
vt -0.4228516 0.9946289
vt -0.3896484 0.9946289
vt -0.4030762 0.9931641
vt -0.3955078 0.9916992
vt -0.3896484 0.9946289
vt -0.3955078 0.9916992
vt -0.3952637 0.9926758
vt -0.3896484 0.9946289
vt 0.590332 0.9833984
vt 0.5795898 0.9833984
vt 0.6103516 0.9946289
vt 0.5795898 0.9833984
vt 0.5297852 0.9946289
vt 0.6103516 0.9946289

g baoshizhizhen
usemtl baoshizhizhen
usemap baoshizhizhen
f 1/1/1 3/3/3 2/2/2
f 4/4/4 6/6/6 5/5/5
f 7/7/7 9/9/9 8/8/8
f 10/10/10 12/12/12 11/11/11
f 11/11/11 13/13/13 10/10/10
f 14/14/14 16/16/16 15/15/15
f 17/17/17 19/19/19 18/18/18
f 20/20/20 22/22/22 21/21/21
f 23/23/23 25/25/25 24/24/24
f 25/25/25 26/26/26 24/24/24
f 26/26/26 28/28/28 27/27/27
f 29/29/29 31/31/31 30/30/30
f 32/32/32 34/34/34 33/33/33
f 35/35/35 37/37/37 36/36/36
f 38/38/38 40/40/40 39/39/39
f 41/41/41 43/43/43 42/42/42
f 44/44/44 46/46/46 45/45/45
f 47/47/47 49/49/49 48/48/48
f 50/50/50 52/52/52 51/51/51
f 53/53/53 55/55/55 54/54/54
f 56/56/56 58/58/58 57/57/57
f 59/59/59 61/61/61 60/60/60
f 62/62/62 64/64/64 63/63/63
f 65/65/65 67/67/67 66/66/66
f 68/68/68 70/70/70 69/69/69
f 68/68/68 71/71/71 70/70/70
f 72/72/72 74/74/74 73/73/73
f 75/75/75 77/77/77 76/76/76
f 78/78/78 80/80/80 79/79/79
f 79/79/79 81/81/81 78/78/78
f 82/82/82 84/84/84 83/83/83
f 85/85/85 87/87/87 86/86/86
f 88/88/88 90/90/90 89/89/89
f 91/91/91 93/93/93 92/92/92
f 94/94/94 96/96/96 95/95/95
f 97/97/97 99/99/99 98/98/98
f 100/100/100 102/102/102 101/101/101
f 103/103/103 105/105/105 104/104/104
f 106/106/106 108/108/108 107/107/107
f 109/109/109 111/111/111 110/110/110
f 112/112/112 114/114/114 113/113/113
f 115/115/115 117/117/117 116/116/116
f 118/118/118 120/120/120 119/119/119
f 119/119/119 121/121/121 118/118/118
f 122/122/122 124/124/124 123/123/123
f 125/125/125 127/127/127 126/126/126
f 128/128/128 130/130/130 129/129/129
f 131/131/131 133/133/133 132/132/132
f 134/134/134 136/136/136 135/135/135
f 137/137/137 139/139/139 138/138/138
f 140/140/140 142/142/142 141/141/141
f 143/143/143 145/145/145 144/144/144
