#huawen02.obj

v 18.37726 -10.66965 -3.015378E-06
v 15.67877 -9.173039 -4.278037E-06
v 15.07495 -13.09922 1.959627E-06
v 18.14087 -12.42949 1.338188E-06
v 11.52618 -13.50251 2.442314E-06
v 12.61151 -7.652968 -5.474878E-06
v 7.528961 -13.56667 2.800152E-06
v 9.28241 -6.062057 -6.585861E-06
v 3.12558 -13.18739 3.052195E-06
v 5.806183 -4.340123 -7.588264E-06
v -1.624084 -12.22653 3.224156E-06
v 2.294891 -2.417987 -8.458547E-06
v -6.628021 -10.51728 3.34966E-06
v -1.158691 -0.2186766 -9.174659E-06
v -11.74658 -7.883071 3.469785E-06
v -4.500366 2.350773 -9.717487E-06
v -16.78976 -4.171902 3.628949E-06
v -7.722412 5.418925 -1.006933E-05
v -21.54355 0.7097282 3.867099E-06
v -10.84363 9.165657 -1.020925E-05
v -25.81799 6.790712 4.212655E-06
v -13.8685 13.80788 -1.010966E-05
v -29.61166 14.60101 4.654383E-06
v -16.64114 19.47919 -9.788386E-06
v -31.43518 22.4283 4.913116E-06
v -17.87662 23.89677 -9.493933E-06
v -30.91306 29.63886 4.938538E-06
v -17.98465 26.98235 -9.214513E-06
v -28.31201 35.67128 4.72714E-06
v -17.36713 29.55181 -8.902631E-06
v -24.43976 40.18344 4.311403E-06
v -15.92111 32.22058 -8.54427E-06
v -20.03818 43.40332 3.738402E-06
v -13.60065 35.02932 -8.140603E-06
v -15.51248 45.70717 3.041836E-06
v -10.64877 37.84561 -7.682782E-06
v -11.086 47.37088 2.242463E-06
v -7.412018 40.59624 -7.154545E-06
v -6.909088 48.56416 1.353741E-06
v -4.210266 43.26213 -6.539314E-06
v -3.12207 49.36738 3.85759E-07
v -1.337219 45.8186 -5.822114E-06
v 0.1834106 49.80041 -6.559349E-07
v 0.9812317 48.2141 -4.992456E-06

vn 0 0 -1
vn 0 0 -1
vn 0 0 -1
vn 0 0 -1
vn 0 0 -1
vn 0 0 -1
vn 0 0 -1
vn 0 0 -1
vn 0 0 -1
vn 0 0 -1
vn 0 0 -1
vn 0 0 -1
vn 0 0 -1
vn 0 0 -1
vn 0 0 -1
vn 0 0 -1
vn 0 0 -1
vn 0 0 -1
vn 0 0 -1
vn 0 0 -1
vn 0 0 -1
vn 0 0 -1
vn 0 0 -1
vn 0 0 -1
vn 0 0 -1
vn 0 0 -1
vn 0 0 -1
vn 0 0 -1
vn 0 0 -1
vn 0 0 -1
vn 0 0 -1
vn 0 0 -1
vn 0 0 -1
vn 0 0 -1
vn 0 0 -1
vn 0 0 -1
vn 0 0 -1
vn 0 0 -1
vn 0 0 -1
vn 0 0 -1
vn 0 0 -1
vn 0 0 -1
vn 0 0 -1
vn 0 0 -1

vt 1.192093E-07 -5.960464E-08
vt 1.192093E-07 0.04760742
vt 1 0.04760742
vt 1 0
vt 1 0.09521484
vt 1.192093E-07 0.09521484
vt 1 0.1428223
vt 1.192093E-07 0.1428223
vt 1 0.1904297
vt 1.192093E-07 0.1904297
vt 1 0.2380371
vt 1.192093E-07 0.2380371
vt 1 0.2856445
vt 1.192093E-07 0.2856445
vt 1 0.333252
vt 1.192093E-07 0.333252
vt 1 0.3808594
vt 1.192093E-07 0.3808594
vt 1 0.4284668
vt 1.192093E-07 0.4284668
vt 1 0.4760742
vt 1.192093E-07 0.4760742
vt 1 0.5239258
vt 1.192093E-07 0.5239258
vt 1 0.5712891
vt 1.192093E-07 0.5712891
vt 1 0.6191406
vt 1.192093E-07 0.6191406
vt 1 0.6665039
vt 1.192093E-07 0.6665039
vt 1 0.7143555
vt 1.192093E-07 0.7143555
vt 1 0.7617188
vt 1.192093E-07 0.7617188
vt 1 0.8095703
vt 1.192093E-07 0.8095703
vt 1 0.8569336
vt 1.192093E-07 0.8569336
vt 1 0.9047852
vt 1.192093E-07 0.9047852
vt 1 0.9521484
vt 1.192093E-07 0.9521484
vt 1 1
vt 1.192093E-07 1

g huawen02
usemtl huawen02
usemap huawen02
f 1/1/1 3/3/3 2/2/2
f 1/1/1 4/4/4 3/3/3
f 2/2/2 3/3/3 5/5/5
f 2/2/2 5/5/5 6/6/6
f 6/6/6 5/5/5 7/7/7
f 6/6/6 7/7/7 8/8/8
f 8/8/8 7/7/7 9/9/9
f 8/8/8 9/9/9 10/10/10
f 10/10/10 9/9/9 11/11/11
f 10/10/10 11/11/11 12/12/12
f 12/12/12 11/11/11 13/13/13
f 12/12/12 13/13/13 14/14/14
f 14/14/14 13/13/13 15/15/15
f 14/14/14 15/15/15 16/16/16
f 16/16/16 15/15/15 17/17/17
f 16/16/16 17/17/17 18/18/18
f 18/18/18 17/17/17 19/19/19
f 18/18/18 19/19/19 20/20/20
f 20/20/20 19/19/19 21/21/21
f 20/20/20 21/21/21 22/22/22
f 22/22/22 21/21/21 23/23/23
f 22/22/22 23/23/23 24/24/24
f 24/24/24 23/23/23 25/25/25
f 24/24/24 25/25/25 26/26/26
f 26/26/26 25/25/25 27/27/27
f 26/26/26 27/27/27 28/28/28
f 28/28/28 27/27/27 29/29/29
f 28/28/28 29/29/29 30/30/30
f 30/30/30 29/29/29 31/31/31
f 30/30/30 31/31/31 32/32/32
f 32/32/32 31/31/31 33/33/33
f 32/32/32 33/33/33 34/34/34
f 34/34/34 33/33/33 35/35/35
f 34/34/34 35/35/35 36/36/36
f 36/36/36 35/35/35 37/37/37
f 36/36/36 37/37/37 38/38/38
f 38/38/38 37/37/37 39/39/39
f 38/38/38 39/39/39 40/40/40
f 40/40/40 39/39/39 41/41/41
f 40/40/40 41/41/41 42/42/42
f 42/42/42 41/41/41 43/43/43
f 42/42/42 43/43/43 44/44/44
