#huawen01.obj

v 7.509155 -8.149101 -1.21991E-05
v 9.201599 -5.06189 -1.202807E-05
v 3.960632 -4.743942 -9.830384E-06
v 5.171509 -7.9394 -9.655198E-06
v 2.786682 -0.9669876 -9.988393E-06
v 10.65027 -1.029457 -1.18747E-05
v 1.498352 3.617104 -1.012909E-05
v 11.66516 4.253181 -1.173881E-05
v -0.1226196 9.455612 -1.025235E-05
v 11.97949 11.14304 -1.162016E-05
v -2.384216 17.18394 -1.035799E-05
v 11.2735 20.07981 -1.151845E-05
v -5.678467 27.55131 -1.044577E-05
v 9.185486 31.62908 -1.143337E-05
v -10.29047 40.85359 -1.051536E-05
v 5.455383 46.02912 -1.136462E-05
v -14.54803 51.39458 -1.056643E-05
v 1.730896 57.66714 -1.131184E-05
v -18.49371 60.76252 -1.059906E-05
v -1.616516 67.09571 -1.127525E-05
v -21.5658 69.78973 -1.061346E-05
v -3.789978 74.20813 -1.12554E-05
v -22.73688 79.44107 -1.060991E-05
v -4.426331 78.96567 -1.125295E-05
v -20.43243 89.52136 -1.058936E-05
v -3.791199 82.59187 -1.126792E-05
v -14.42816 98.63845 -1.055293E-05
v -0.9956665 87.50651 -1.130009E-05
v -5.352051 107.0215 -1.050066E-05
v 5.397705 94.4057 -1.135027E-05
v 5.858521 115.9975 -1.04316E-05
v 16.71564 105.0573 -1.141922E-05
v 13.56787 123.8474 -1.034512E-05
v 24.95288 115.7665 -1.15057E-05
v 18.24274 130.1726 -1.024134E-05
v 29.40472 125.2009 -1.160947E-05
v 20.95538 135.1658 -1.012027E-05
v 30.93073 133.1016 -1.173053E-05
v 22.51886 139.1345 -9.981901E-06
v 30.38196 139.2426 -1.186889E-05
v 23.45795 142.3812 -9.826237E-06
v 28.57935 143.5388 -1.202455E-05
v 24.0799 145.1386 -9.653279E-06
v 26.22656 146.0874 -1.21975E-05
v 2.727295 -7.207298 -4.811298E-06
v -2.169617 1.992226 -4.638237E-06
v -6.37207 -1.155533 -2.44032E-06
v 0.8169556 -8.570755 -2.267252E-06
v -14.31323 6.726753 -2.596082E-06
v -8.354065 11.85784 -4.482483E-06
v -22.72369 13.63078 -2.734538E-06
v -16.11206 21.38025 -4.344035E-06
v -29.97021 17.21192 -2.830264E-06
v -24.349 28.06139 -4.190708E-06
v -41.27728 20.75947 -2.855137E-06
v -37.36792 34.1623 -3.999204E-06
v -55.89001 22.42546 -2.87643E-06
v -55.39435 37.83062 -3.859341E-06
v -71.66946 19.5955 -2.978331E-06
v -77.06516 35.26722 -3.908861E-06
v -87.12473 10.68713 -3.176374E-06
v -96.75876 25.23141 -4.092993E-06
v -101.7907 -0.2142639 -3.124097E-06
v -112.6368 14.18401 -3.969447E-06
v -116.2501 -10.96405 -2.897952E-06
v -126.5201 4.202637 -3.705909E-06
v -131.6753 -19.54659 -2.687175E-06
v -138.6298 -2.601494 -3.491E-06
v -149.0452 -23.83098 -2.689478E-06
v -152.1209 -6.068962 -3.491562E-06
v -169.0139 -25.94247 -2.867724E-06
v -170.1227 -8.532104 -3.720048E-06
v -188.8312 -25.21078 -3.078282E-06
v -186.9181 -8.747009 -4.008571E-06
v -205.5998 -19.74528 -3.164361E-06
v -197.994 -6.339417 -4.230393E-06
v -217.9507 -6.132523 -3.072628E-06
v -206.0617 1.186584 -4.334026E-06
v -221.7752 11.1377 -2.976215E-06
v -209.5856 10.28765 -4.427407E-06
v -213.4729 26.49295 -2.903617E-06
v -206.1795 19.38138 -4.553942E-06
v -199.5637 35.73473 -2.921385E-06
v -195.6171 28.93297 -4.81706E-06
v -189.3936 37.5382 -3.102841E-06
v -189.1463 32.29344 -5.239719E-06
v -179.742 35.41897 -3.26324E-06
v -180.0156 33.08795 -5.780174E-06

vn 0 0 -1
vn 0 0 -1
vn 0 0 -1
vn 0 0 -1
vn 0 0 -1
vn 0 0 -1
vn 0 0 -1
vn 0 0 -1
vn 0 0 -1
vn 0 0 -1
vn 0 0 -1
vn 0 0 -1
vn 0 0 -1
vn 0 0 -1
vn 0 0 -1
vn 0 0 -1
vn 0 0 -1
vn 0 0 -1
vn 0 0 -1
vn 0 0 -1
vn 0 0 -1
vn 0 0 -1
vn 0 0 -1
vn 0 0 -1
vn 0 0 -1
vn 0 0 -1
vn 0 0 -1
vn 0 0 -1
vn 0 0 -1
vn 0 0 -1
vn 0 0 -1
vn 0 0 -1
vn 0 0 -1
vn 0 0 -1
vn 0 0 -1
vn 0 0 -1
vn 0 0 -1
vn 0 0 -1
vn 0 0 -1
vn 0 0 -1
vn 0 0 -1
vn 0 0 -1
vn 0 0 -1
vn 0 0 -1
vn 0 0 -1
vn 0 0 -1
vn 0 0 -1
vn 0 0 -1
vn 0 0 -1
vn 0 0 -1
vn 0 0 -1
vn 0 0 -1
vn 0 0 -1
vn 0 0 -1
vn 0 0 -1
vn 0 0 -1
vn 0 0 -1
vn 0 0 -1
vn 0 0 -1
vn 0 0 -1
vn 0 0 -1
vn 0 0 -1
vn 0 0 -1
vn 0 0 -1
vn 0 0 -1
vn 0 0 -1
vn 0 0 -1
vn 0 0 -1
vn 0 0 -1
vn 0 0 -1
vn 0 0 -1
vn 0 0 -1
vn 0 0 -1
vn 0 0 -1
vn 0 0 -1
vn 0 0 -1
vn 0 0 -1
vn 0 0 -1
vn 0 0 -1
vn 0 0 -1
vn 0 0 -1
vn 0 0 -1
vn 0 0 -1
vn 0 0 -1
vn 0 0 -1
vn 0 0 -1
vn 0 0 -1
vn 0 0 -1

vt 0 0
vt 0 0.04760742
vt 1 0.04760742
vt 1 5.960464E-08
vt 1 0.09521484
vt 0 0.09521484
vt 1 0.1428223
vt 0 0.1428223
vt 1 0.1904297
vt 0 0.1904297
vt 1 0.2380371
vt 0 0.2380371
vt 1 0.2856445
vt 0 0.2856445
vt 1 0.333252
vt 0 0.333252
vt 1 0.3808594
vt 0 0.3808594
vt 1 0.4284668
vt 0 0.4284668
vt 1 0.4760742
vt 0 0.4760742
vt 1 0.5239258
vt 0 0.5239258
vt 1 0.5712891
vt 0 0.5712891
vt 1 0.6191406
vt 0 0.6191406
vt 1 0.6665039
vt 0 0.6665039
vt 1 0.7143555
vt 0 0.7143555
vt 1 0.7617188
vt 0 0.7617188
vt 1 0.8095703
vt 0 0.8095703
vt 1 0.8569336
vt 0 0.8569336
vt 1 0.9047852
vt 0 0.9047852
vt 1 0.9521484
vt 0 0.9521484
vt 1 1
vt 0 1
vt 0 0
vt 0 0.04760742
vt 1 0.04760742
vt 1 5.960464E-08
vt 1 0.09521484
vt 0 0.09521484
vt 1 0.1428223
vt 0 0.1428223
vt 1 0.1904297
vt 0 0.1904297
vt 1 0.2380371
vt 0 0.2380371
vt 1 0.2856445
vt 0 0.2856445
vt 1 0.333252
vt 0 0.333252
vt 1 0.3808594
vt 0 0.3808594
vt 1 0.4284668
vt 0 0.4284668
vt 1 0.4760742
vt 0 0.4760742
vt 1 0.5239258
vt 0 0.5239258
vt 1 0.5712891
vt 0 0.5712891
vt 1 0.6191406
vt 0 0.6191406
vt 1 0.6665039
vt 0 0.6665039
vt 1 0.7143555
vt 0 0.7143555
vt 1 0.7617188
vt 0 0.7617188
vt 1 0.8095703
vt 0 0.8095703
vt 1 0.8569336
vt 0 0.8569336
vt 1 0.9047852
vt 0 0.9047852
vt 1 0.9521484
vt 0 0.9521484
vt 1 1
vt 0 1

g huawen01
usemtl huawen01
usemap huawen01
f 1/1/1 3/3/3 2/2/2
f 1/1/1 4/4/4 3/3/3
f 2/2/2 3/3/3 5/5/5
f 2/2/2 5/5/5 6/6/6
f 6/6/6 5/5/5 7/7/7
f 6/6/6 7/7/7 8/8/8
f 8/8/8 7/7/7 9/9/9
f 8/8/8 9/9/9 10/10/10
f 10/10/10 9/9/9 11/11/11
f 10/10/10 11/11/11 12/12/12
f 12/12/12 11/11/11 13/13/13
f 12/12/12 13/13/13 14/14/14
f 14/14/14 13/13/13 15/15/15
f 14/14/14 15/15/15 16/16/16
f 16/16/16 15/15/15 17/17/17
f 16/16/16 17/17/17 18/18/18
f 18/18/18 17/17/17 19/19/19
f 18/18/18 19/19/19 20/20/20
f 20/20/20 19/19/19 21/21/21
f 20/20/20 21/21/21 22/22/22
f 22/22/22 21/21/21 23/23/23
f 22/22/22 23/23/23 24/24/24
f 24/24/24 23/23/23 25/25/25
f 24/24/24 25/25/25 26/26/26
f 26/26/26 25/25/25 27/27/27
f 26/26/26 27/27/27 28/28/28
f 28/28/28 27/27/27 29/29/29
f 28/28/28 29/29/29 30/30/30
f 30/30/30 29/29/29 31/31/31
f 30/30/30 31/31/31 32/32/32
f 32/32/32 31/31/31 33/33/33
f 32/32/32 33/33/33 34/34/34
f 34/34/34 33/33/33 35/35/35
f 34/34/34 35/35/35 36/36/36
f 36/36/36 35/35/35 37/37/37
f 36/36/36 37/37/37 38/38/38
f 38/38/38 37/37/37 39/39/39
f 38/38/38 39/39/39 40/40/40
f 40/40/40 39/39/39 41/41/41
f 40/40/40 41/41/41 42/42/42
f 42/42/42 41/41/41 43/43/43
f 42/42/42 43/43/43 44/44/44
f 45/45/45 47/47/47 46/46/46
f 45/45/45 48/48/48 47/47/47
f 46/46/46 47/47/47 49/49/49
f 46/46/46 49/49/49 50/50/50
f 50/50/50 49/49/49 51/51/51
f 50/50/50 51/51/51 52/52/52
f 52/52/52 51/51/51 53/53/53
f 52/52/52 53/53/53 54/54/54
f 54/54/54 53/53/53 55/55/55
f 54/54/54 55/55/55 56/56/56
f 56/56/56 55/55/55 57/57/57
f 56/56/56 57/57/57 58/58/58
f 58/58/58 57/57/57 59/59/59
f 58/58/58 59/59/59 60/60/60
f 60/60/60 59/59/59 61/61/61
f 60/60/60 61/61/61 62/62/62
f 62/62/62 61/61/61 63/63/63
f 62/62/62 63/63/63 64/64/64
f 64/64/64 63/63/63 65/65/65
f 64/64/64 65/65/65 66/66/66
f 66/66/66 65/65/65 67/67/67
f 66/66/66 67/67/67 68/68/68
f 68/68/68 67/67/67 69/69/69
f 68/68/68 69/69/69 70/70/70
f 70/70/70 69/69/69 71/71/71
f 70/70/70 71/71/71 72/72/72
f 72/72/72 71/71/71 73/73/73
f 72/72/72 73/73/73 74/74/74
f 74/74/74 73/73/73 75/75/75
f 74/74/74 75/75/75 76/76/76
f 76/76/76 75/75/75 77/77/77
f 76/76/76 77/77/77 78/78/78
f 78/78/78 77/77/77 79/79/79
f 78/78/78 79/79/79 80/80/80
f 80/80/80 79/79/79 81/81/81
f 80/80/80 81/81/81 82/82/82
f 82/82/82 81/81/81 83/83/83
f 82/82/82 83/83/83 84/84/84
f 84/84/84 83/83/83 85/85/85
f 84/84/84 85/85/85 86/86/86
f 86/86/86 85/85/85 87/87/87
f 86/86/86 87/87/87 88/88/88
