#longtou_wenli.obj

v 15.62764 0 7.38974E-14
v 26.31221 -1.907349E-06 16.72209
v 24.72539 8.999308 16.72209
v 14.68518 5.344969 7.38974E-14
v 20.15632 16.91316 16.72209
v 11.97146 10.04525 7.38974E-14
v 13.1561 22.78704 16.72209
v 7.813818 13.53393 7.38974E-14
v 4.569067 25.91247 16.72209
v 2.713709 15.39022 7.38974E-14
v -4.569069 25.91247 16.72209
v -2.713713 15.39022 7.38974E-14
v 14.68517 -5.34498 7.389739E-14
v 24.72537 -8.999325 16.72209
v 11.97146 -10.04526 7.389739E-14
v 20.15631 -16.91317 16.72209
v 7.813814 -13.53394 7.38974E-14
v 13.15609 -22.78705 16.72209
v 2.713701 -15.39022 7.38974E-14
v 4.569052 -25.91247 16.72209
v -2.71372 -15.39022 7.389739E-14
v -4.569084 -25.91246 16.72209
v -7.813824 -13.53393 7.38974E-14
v -13.15611 -22.78703 16.72209
v -11.97147 -10.04525 7.389739E-14
v -20.15632 -16.91315 16.72209
v -14.68518 -5.344965 7.38974E-14
v -24.72539 -8.9993 16.72209
v -15.62764 0 7.38974E-14
v -26.31221 3.814697E-06 16.72209
v -14.68518 5.344965 7.38974E-14
v -24.72538 8.999311 16.72209
v -11.97147 10.04525 7.389739E-14
v -20.15632 16.91316 16.72209
v -7.813818 13.53393 7.38974E-14
v -13.1561 22.78704 16.72209
v -2.713713 15.39022 7.38974E-14
v -4.569069 25.91247 16.72209
v -18.6182 32.24765 33.44418
v -6.466036 36.67069 33.44418
v -28.52473 23.93509 33.44417
v -34.99076 12.73559 33.44418
v -37.2364 3.814697E-06 33.44418
v -34.99076 -12.73559 33.44418
v -28.52474 -23.93509 33.44418
v -18.61821 -32.24766 33.44417
v -6.466049 -36.67069 33.44417
v 6.466013 -36.67069 33.44418
v 18.61819 -32.24767 33.44418
v 28.52471 -23.93511 33.44418
v 34.99075 -12.73562 33.44418
v 37.2364 0 33.44418
v 34.99076 12.7356 33.44418
v 28.52472 23.93509 33.44418
v 18.61819 32.24766 33.44418
v 6.466028 36.67068 33.44418
v -6.466036 36.67069 33.44418
v 45.48131 16.55384 50.16627
v 48.40021 -1.907349E-06 50.16627
v 37.07671 31.11105 50.16627
v 24.2001 41.91579 50.16627
v 8.404604 47.66489 50.16627
v -8.404612 47.66489 50.16627
v 56.19702 20.45405 66.88836
v 59.80363 0 66.88835
v 45.81224 38.44102 66.88836
v 29.90181 51.79147 66.88836
v 10.38479 58.89507 66.88836
v -10.3848 58.89507 66.88836
v 45.4813 -16.55387 50.16626
v 37.07668 -31.11107 50.16626
v 24.20008 -41.91582 50.16626
v 8.404581 -47.6649 50.16627
v -8.404627 -47.66489 50.16626
v -24.20012 -41.91579 50.16627
v -37.07671 -31.11104 50.16626
v -45.48131 -16.55384 50.16626
v -48.4002 3.814697E-06 50.16627
v -45.48131 16.55385 50.16627
v -37.0767 31.11104 50.16626
v -24.2001 41.9158 50.16627
v -8.404612 47.66489 50.16627
v -29.90182 51.79146 66.88836
v -10.3848 58.89507 66.88836
v -45.81223 38.44102 66.88836
v -56.19703 20.45405 66.88836
v -59.80363 7.629395E-06 66.88836
v -56.19703 -20.45403 66.88836
v -45.81224 -38.44102 66.88835
v -29.90183 -51.79145 66.88834
v -10.38482 -58.89507 66.88834
v 10.38476 -58.89508 66.88835
v 29.90179 -51.79148 66.88835
v 45.81219 -38.44106 66.88835
v 56.19701 -20.45409 66.88834
v -35.72336 -61.87462 83.61044
v -54.73135 -45.92502 83.61045
v -12.40662 -70.36124 83.61044
v 12.40655 -70.36124 83.61044
v 35.72331 -61.87466 83.61044
v 54.73129 -45.92507 83.61044
v 67.13789 -24.43625 83.61044
v 71.44669 0 83.61045
v 67.13792 24.4362 83.61045
v 54.73132 45.92504 83.61045
v 35.72334 61.87464 83.61044
v 12.40658 70.36124 83.61045
v -12.4066 70.36124 83.61045
v -12.4066 70.36124 83.61045
v -35.72334 61.87464 83.61045
v -54.73133 45.92503 83.61045
v -67.13792 24.43621 83.61045
v -71.44669 7.629395E-06 83.61045
v -67.13792 -24.43619 83.61044

vn 0.8426731 0 -0.5384254
vn 0.8397759 0 -0.5429332
vn 0.7891312 0.2872205 -0.5429331
vn 0.7918536 0.2882115 -0.5384254
vn 0.6433057 0.5397976 -0.542933
vn 0.645525 0.5416599 -0.5384255
vn 0.4198881 0.7272672 -0.542933
vn 0.4213367 0.7297762 -0.5384256
vn 0.1458257 0.8270178 -0.542933
vn 0.1463287 0.829871 -0.5384256
vn -0.1458258 0.8270178 -0.5429332
vn -0.146329 0.8298709 -0.5384255
vn 0.7918535 -0.288212 -0.5384254
vn 0.789131 -0.287221 -0.5429332
vn 0.6455249 -0.5416602 -0.5384254
vn 0.6433054 -0.5397979 -0.5429332
vn 0.4213361 -0.7297767 -0.5384254
vn 0.4198875 -0.7272675 -0.5429332
vn 0.1463283 -0.8298712 -0.5384253
vn 0.1458252 -0.827018 -0.5429332
vn -0.1463289 -0.8298711 -0.5384254
vn -0.1458258 -0.8270177 -0.5429332
vn -0.421337 -0.7297761 -0.5384254
vn -0.4198884 -0.727267 -0.5429332
vn -0.6455253 -0.5416597 -0.5384253
vn -0.643306 -0.5397972 -0.5429332
vn -0.7918539 -0.2882111 -0.5384253
vn -0.7891313 -0.2872202 -0.5429331
vn -0.8426732 0 -0.5384254
vn -0.8397759 0 -0.5429332
vn -0.7918538 0.2882111 -0.5384254
vn -0.7891312 0.2872203 -0.5429332
vn -0.645525 0.54166 -0.5384254
vn -0.6433055 0.5397977 -0.5429333
vn -0.4213366 0.7297763 -0.5384254
vn -0.419888 0.7272673 -0.5429331
vn -0.146329 0.8298709 -0.5384255
vn -0.1458258 0.8270178 -0.5429332
vn -0.4171402 0.722508 -0.5513403
vn -0.1448714 0.8216058 -0.5513403
vn -0.6390958 0.5362651 -0.5513405
vn -0.7839671 0.2853406 -0.5513405
vn -0.8342803 0 -0.5513405
vn -0.7839671 -0.2853405 -0.5513405
vn -0.639096 -0.5362647 -0.5513405
vn -0.4171406 -0.7225078 -0.5513404
vn -0.1448715 -0.8216057 -0.5513404
vn 0.1448708 -0.8216057 -0.5513405
vn 0.4171398 -0.7225081 -0.5513406
vn 0.6390955 -0.5362653 -0.5513406
vn 0.7839668 -0.2853413 -0.5513406
vn 0.8342803 0 -0.5513405
vn 0.783967 0.2853409 -0.5513404
vn 0.6390958 0.5362651 -0.5513404
vn 0.4171402 0.7225081 -0.5513403
vn 0.1448715 0.8216059 -0.5513402
vn -0.1448714 0.8216058 -0.5513403
vn 0.778793 0.2834577 -0.559583
vn 0.8287743 0 -0.5595831
vn 0.6348779 0.5327259 -0.5595831
vn 0.414387 0.7177396 -0.5595831
vn 0.1439152 0.8161833 -0.5595829
vn -0.1439152 0.8161834 -0.559583
vn 0.7736124 0.281572 -0.5676627
vn 0.8232612 0 -0.5676627
vn 0.6306548 0.529182 -0.5676627
vn 0.4116304 0.7129651 -0.5676628
vn 0.1429577 0.8107541 -0.5676627
vn -0.1429578 0.8107541 -0.5676627
vn 0.7787929 -0.2834581 -0.5595829
vn 0.6348778 -0.5327262 -0.5595829
vn 0.4143868 -0.7177398 -0.559583
vn 0.1439147 -0.8161834 -0.559583
vn -0.1439155 -0.8161833 -0.5595831
vn -0.4143874 -0.7177394 -0.559583
vn -0.6348782 -0.5327256 -0.5595831
vn -0.7787931 -0.2834574 -0.5595831
vn -0.8287743 0 -0.5595831
vn -0.7787931 0.2834577 -0.5595829
vn -0.634878 0.5327259 -0.5595829
vn -0.4143872 0.7177396 -0.5595829
vn -0.1439152 0.8161834 -0.559583
vn -0.4116307 0.7129651 -0.5676628
vn -0.1429578 0.8107541 -0.5676627
vn -0.6306546 0.5291821 -0.5676627
vn -0.7736124 0.2815722 -0.5676627
vn -0.8232612 0 -0.5676628
vn -0.7736125 -0.2815718 -0.5676627
vn -0.630655 -0.5291818 -0.5676627
vn -0.411631 -0.7129649 -0.5676627
vn -0.1429581 -0.8107539 -0.5676628
vn 0.1429574 -0.8107541 -0.5676628
vn 0.4116304 -0.7129653 -0.5676628
vn 0.6306545 -0.5291826 -0.5676626
vn 0.7736123 -0.2815726 -0.5676625
vn -0.4103347 -0.7107195 -0.5714045
vn -0.6286688 -0.5275152 -0.5714046
vn -0.1425079 -0.8082006 -0.5714047
vn 0.1425073 -0.8082007 -0.5714047
vn 0.4103339 -0.7107197 -0.5714049
vn 0.6286682 -0.5275158 -0.5714048
vn 0.7711759 -0.2806858 -0.5714047
vn 0.8206683 0 -0.5714048
vn 0.7711759 0.2806852 -0.5714049
vn 0.6286685 0.5275154 -0.5714048
vn 0.4103341 0.7107196 -0.5714049
vn 0.1425073 0.8082006 -0.5714048
vn -0.1425075 0.8082006 -0.5714048
vn -0.1425075 0.8082006 -0.5714048
vn -0.4103342 0.7107195 -0.5714049
vn -0.6286684 0.5275155 -0.5714049
vn -0.7711759 0.2806853 -0.5714049
vn -0.8206683 0 -0.5714048
vn -0.771176 -0.280685 -0.5714048

vt 0.75 0
vt 0.75 0.2
vt 0.8055555 0.2
vt 0.8055555 0
vt 0.861111 0.2
vt 0.861111 0
vt 0.9166667 0.2
vt 0.9166667 0
vt 0.9722222 0.2
vt 0.9722222 0
vt 1.027778 0.2
vt 1.027778 0
vt 0.6944443 0
vt 0.6944443 0.2
vt 0.6388888 0
vt 0.6388888 0.2
vt 0.5833333 0
vt 0.5833333 0.2
vt 0.5277777 0
vt 0.5277777 0.2
vt 0.4722221 0
vt 0.4722221 0.2
vt 0.4166666 0
vt 0.4166666 0.2
vt 0.3611111 0
vt 0.3611111 0.2
vt 0.3055556 0
vt 0.3055556 0.2
vt 0.25 0
vt 0.25 0.2
vt 0.1944444 0
vt 0.1944444 0.2
vt 0.1388889 0
vt 0.1388889 0.2
vt 0.08333335 0
vt 0.08333335 0.2
vt 0.02777781 0
vt 0.02777781 0.2
vt 0.08333335 0.4
vt 0.02777781 0.4
vt 0.1388889 0.4
vt 0.1944444 0.4
vt 0.25 0.4
vt 0.3055556 0.4
vt 0.3611111 0.4
vt 0.4166666 0.4
vt 0.4722221 0.4
vt 0.5277777 0.4
vt 0.5833333 0.4
vt 0.6388888 0.4
vt 0.6944443 0.4
vt 0.75 0.4
vt 0.8055555 0.4
vt 0.861111 0.4
vt 0.9166667 0.4
vt 0.9722222 0.4
vt 1.027778 0.4
vt 0.8055555 0.6
vt 0.75 0.6
vt 0.861111 0.6
vt 0.9166667 0.6
vt 0.9722222 0.6
vt 1.027778 0.6
vt 0.8055555 0.8
vt 0.75 0.8
vt 0.861111 0.8
vt 0.9166667 0.8
vt 0.9722222 0.8
vt 1.027778 0.8
vt 0.6944443 0.6
vt 0.6388888 0.6
vt 0.5833333 0.6
vt 0.5277777 0.6
vt 0.4722221 0.6
vt 0.4166666 0.6
vt 0.3611111 0.6
vt 0.3055556 0.6
vt 0.25 0.6
vt 0.1944444 0.6
vt 0.1388889 0.6
vt 0.08333335 0.6
vt 0.02777781 0.6
vt 0.08333335 0.8
vt 0.02777781 0.8
vt 0.1388889 0.8
vt 0.1944444 0.8
vt 0.25 0.8
vt 0.3055556 0.8
vt 0.3611111 0.8
vt 0.4166666 0.8
vt 0.4722221 0.8
vt 0.5277777 0.8
vt 0.5833333 0.8
vt 0.6388888 0.8
vt 0.6944443 0.8
vt 0.4166666 1
vt 0.3611111 1
vt 0.4722221 1
vt 0.5277777 1
vt 0.5833333 1
vt 0.6388888 1
vt 0.6944443 1
vt 0.75 1
vt 0.8055555 1
vt 0.861111 1
vt 0.9166667 1
vt 0.9722222 1
vt 1.027778 1
vt 0.02777781 1
vt 0.08333335 1
vt 0.1388889 1
vt 0.1944444 1
vt 0.25 1
vt 0.3055556 1

g longtou_wenli
usemtl longtou_wenli
usemap longtou_wenli
f 1/1/1 3/3/3 2/2/2
f 1/1/1 4/4/4 3/3/3
f 4/4/4 5/5/5 3/3/3
f 4/4/4 6/6/6 5/5/5
f 6/6/6 7/7/7 5/5/5
f 6/6/6 8/8/8 7/7/7
f 8/8/8 9/9/9 7/7/7
f 8/8/8 10/10/10 9/9/9
f 10/10/10 11/11/11 9/9/9
f 10/10/10 12/12/12 11/11/11
f 13/13/13 1/1/1 2/2/2
f 13/13/13 2/2/2 14/14/14
f 15/15/15 13/13/13 14/14/14
f 15/15/15 14/14/14 16/16/16
f 17/17/17 15/15/15 16/16/16
f 17/17/17 16/16/16 18/18/18
f 19/19/19 17/17/17 18/18/18
f 19/19/19 18/18/18 20/20/20
f 21/21/21 19/19/19 20/20/20
f 21/21/21 20/20/20 22/22/22
f 23/23/23 21/21/21 22/22/22
f 23/23/23 22/22/22 24/24/24
f 25/25/25 23/23/23 24/24/24
f 25/25/25 24/24/24 26/26/26
f 27/27/27 25/25/25 26/26/26
f 27/27/27 26/26/26 28/28/28
f 29/29/29 27/27/27 28/28/28
f 29/29/29 28/28/28 30/30/30
f 31/31/31 29/29/29 30/30/30
f 31/31/31 30/30/30 32/32/32
f 33/33/33 31/31/31 32/32/32
f 33/33/33 32/32/32 34/34/34
f 35/35/35 33/33/33 34/34/34
f 35/35/35 34/34/34 36/36/36
f 37/37/37 35/35/35 36/36/36
f 37/37/37 36/36/36 38/38/38
f 38/38/38 36/36/36 39/39/39
f 38/38/38 39/39/39 40/40/40
f 36/36/36 41/41/41 39/39/39
f 36/36/36 34/34/34 41/41/41
f 34/34/34 42/42/42 41/41/41
f 34/34/34 32/32/32 42/42/42
f 32/32/32 43/43/43 42/42/42
f 32/32/32 30/30/30 43/43/43
f 30/30/30 44/44/44 43/43/43
f 30/30/30 28/28/28 44/44/44
f 28/28/28 45/45/45 44/44/44
f 28/28/28 26/26/26 45/45/45
f 26/26/26 46/46/46 45/45/45
f 26/26/26 24/24/24 46/46/46
f 24/24/24 47/47/47 46/46/46
f 24/24/24 22/22/22 47/47/47
f 22/22/22 48/48/48 47/47/47
f 22/22/22 20/20/20 48/48/48
f 20/20/20 49/49/49 48/48/48
f 20/20/20 18/18/18 49/49/49
f 18/18/18 50/50/50 49/49/49
f 18/18/18 16/16/16 50/50/50
f 16/16/16 51/51/51 50/50/50
f 16/16/16 14/14/14 51/51/51
f 14/14/14 52/52/52 51/51/51
f 14/14/14 2/2/2 52/52/52
f 2/2/2 53/53/53 52/52/52
f 2/2/2 3/3/3 53/53/53
f 3/3/3 54/54/54 53/53/53
f 3/3/3 5/5/5 54/54/54
f 5/5/5 55/55/55 54/54/54
f 5/5/5 7/7/7 55/55/55
f 7/7/7 56/56/56 55/55/55
f 7/7/7 9/9/9 56/56/56
f 9/9/9 57/57/57 56/56/56
f 9/9/9 11/11/11 57/57/57
f 52/52/52 53/53/53 58/58/58
f 52/52/52 58/58/58 59/59/59
f 51/51/51 52/52/52 59/59/59
f 53/53/53 60/60/60 58/58/58
f 53/53/53 54/54/54 60/60/60
f 54/54/54 61/61/61 60/60/60
f 54/54/54 55/55/55 61/61/61
f 55/55/55 62/62/62 61/61/61
f 55/55/55 56/56/56 62/62/62
f 56/56/56 63/63/63 62/62/62
f 56/56/56 57/57/57 63/63/63
f 59/59/59 58/58/58 64/64/64
f 59/59/59 64/64/64 65/65/65
f 58/58/58 66/66/66 64/64/64
f 58/58/58 60/60/60 66/66/66
f 60/60/60 67/67/67 66/66/66
f 60/60/60 61/61/61 67/67/67
f 61/61/61 68/68/68 67/67/67
f 61/61/61 62/62/62 68/68/68
f 62/62/62 69/69/69 68/68/68
f 62/62/62 63/63/63 69/69/69
f 70/70/70 59/59/59 65/65/65
f 51/51/51 59/59/59 70/70/70
f 50/50/50 51/51/51 70/70/70
f 50/50/50 70/70/70 71/71/71
f 49/49/49 50/50/50 71/71/71
f 49/49/49 71/71/71 72/72/72
f 48/48/48 49/49/49 72/72/72
f 48/48/48 72/72/72 73/73/73
f 47/47/47 48/48/48 73/73/73
f 47/47/47 73/73/73 74/74/74
f 46/46/46 47/47/47 74/74/74
f 46/46/46 74/74/74 75/75/75
f 45/45/45 46/46/46 75/75/75
f 45/45/45 75/75/75 76/76/76
f 44/44/44 45/45/45 76/76/76
f 44/44/44 76/76/76 77/77/77
f 43/43/43 44/44/44 77/77/77
f 43/43/43 77/77/77 78/78/78
f 42/42/42 43/43/43 78/78/78
f 42/42/42 78/78/78 79/79/79
f 41/41/41 42/42/42 79/79/79
f 41/41/41 79/79/79 80/80/80
f 39/39/39 41/41/41 80/80/80
f 39/39/39 80/80/80 81/81/81
f 40/40/40 39/39/39 81/81/81
f 40/40/40 81/81/81 82/82/82
f 82/82/82 81/81/81 83/83/83
f 82/82/82 83/83/83 84/84/84
f 81/81/81 85/85/85 83/83/83
f 81/81/81 80/80/80 85/85/85
f 80/80/80 86/86/86 85/85/85
f 80/80/80 79/79/79 86/86/86
f 79/79/79 87/87/87 86/86/86
f 79/79/79 78/78/78 87/87/87
f 78/78/78 88/88/88 87/87/87
f 78/78/78 77/77/77 88/88/88
f 77/77/77 89/89/89 88/88/88
f 77/77/77 76/76/76 89/89/89
f 76/76/76 90/90/90 89/89/89
f 76/76/76 75/75/75 90/90/90
f 75/75/75 91/91/91 90/90/90
f 75/75/75 74/74/74 91/91/91
f 74/74/74 92/92/92 91/91/91
f 74/74/74 73/73/73 92/92/92
f 73/73/73 93/93/93 92/92/92
f 73/73/73 72/72/72 93/93/93
f 72/72/72 94/94/94 93/93/93
f 72/72/72 71/71/71 94/94/94
f 71/71/71 95/95/95 94/94/94
f 71/71/71 70/70/70 95/95/95
f 70/70/70 65/65/65 95/95/95
f 89/89/89 90/90/90 96/96/96
f 89/89/89 96/96/96 97/97/97
f 90/90/90 98/98/98 96/96/96
f 90/90/90 91/91/91 98/98/98
f 91/91/91 99/99/99 98/98/98
f 91/91/91 92/92/92 99/99/99
f 92/92/92 100/100/100 99/99/99
f 92/92/92 93/93/93 100/100/100
f 93/93/93 101/101/101 100/100/100
f 93/93/93 94/94/94 101/101/101
f 94/94/94 102/102/102 101/101/101
f 94/94/94 95/95/95 102/102/102
f 95/95/95 103/103/103 102/102/102
f 95/95/95 65/65/65 103/103/103
f 65/65/65 104/104/104 103/103/103
f 65/65/65 64/64/64 104/104/104
f 64/64/64 105/105/105 104/104/104
f 64/64/64 66/66/66 105/105/105
f 66/66/66 106/106/106 105/105/105
f 66/66/66 67/67/67 106/106/106
f 67/67/67 107/107/107 106/106/106
f 67/67/67 68/68/68 107/107/107
f 68/68/68 108/108/108 107/107/107
f 68/68/68 69/69/69 108/108/108
f 84/84/84 110/110/110 109/109/109
f 84/84/84 83/83/83 110/110/110
f 83/83/83 111/111/111 110/110/110
f 83/83/83 85/85/85 111/111/111
f 85/85/85 112/112/112 111/111/111
f 85/85/85 86/86/86 112/112/112
f 86/86/86 113/113/113 112/112/112
f 86/86/86 87/87/87 113/113/113
f 87/87/87 114/114/114 113/113/113
f 87/87/87 88/88/88 114/114/114
f 88/88/88 97/97/97 114/114/114
f 88/88/88 89/89/89 97/97/97
