#MB0009_01_07.obj

v 1.723453 1.606104 0.8836774
v 1.419381 0.5892619 -0.905886
v 1.822866 0.7062378 0.8837277
v 1.340207 1.417016 -1.025196
v -1.068788 2.458966 -1.582841
v 1.723453 1.606104 0.8836774
v -1.320411 2.856797 0.8837648
v 1.340207 1.417016 -1.025196
v 0.6879047 1.361879 -2.48895
v -0.7167537 1.816891 -3.587575
v -2.001938 2.208681 0.8835312
v -1.068788 2.458966 -1.582841
v -1.320411 2.856797 0.8837648
v -1.779219 1.631183 -1.693277
v -2.461005 1.314793 0.8833012
v -2.125767 0.7194431 -1.914663
v -0.7167537 1.816891 -3.587575
v -0.8640699 1.170206 -3.989807
v -1.779219 1.631183 -1.693277
v -1.52886 0.1779099 -3.943546
v -0.7692054 0.9396503 -5.179584
v -0.9919895 0.3450002 -5.456073
v -0.7593148 0.7277383 -5.572462
v -0.7167537 1.816891 -3.587575
v -1.218964 -0.2306613 -3.529358
v -2.125767 0.7194431 -1.914663
v -2.454904 0.5251378 -1.819383
v -2.944121 1.119493 0.8832246
v -2.461005 1.314793 0.8833012
v -2.125767 0.7194431 -1.914663
v -1.218964 -0.2306613 -3.529358
v -1.52886 0.1779099 -3.943546
v -1.551886 -0.5650616 -2.462198
v -2.40231 -0.7673802 -1.593831
v -1.834686 -0.8499764 -1.592495
v -1.218964 -0.2306613 -3.529358
v -0.6960411 -0.9315798 -3.725394
v -1.563928 -1.077071 -2.544123
v -0.5059028 -2.136055 -1.472926
v -1.208847 -0.6799434 -3.549135
v -1.920205 -1.784532 -0.7482811
v -2.146648 -1.880993 0.8833616
v 0.1647012 -2.715823 0.8834481
v 1.822866 0.7062378 0.8837277
v 2.155239 0.03278384 -0.11488
v 2.474745 0.151204 0.8837662
v 1.419381 0.5892619 -0.905886
v 2.474745 0.151204 0.8837662
v 1.39147 -1.952716 -0.2179001
v 1.470157 -2.304079 0.8834705
v 1.947329 -0.7707506 -0.2758832
v 1.521219 -0.4932666 -1.519733
v 2.155239 0.03278384 -0.11488
v 0.6248384 -1.697862 -1.909226
v 1.397633 -0.04427047 -2.160806
v 0.3491755 -1.020349 -3.050692
v 0.1760627 -0.8674685 -3.919666
v 0.5448151 -0.03402019 -4.569062
v 1.39147 -1.952716 -0.2179001
v 0.5778974 -2.302057 0.8835698
v 1.470157 -2.304079 0.8834705
v -1.218964 -0.2306613 -3.529358
v -0.46061 -0.5816895 -3.861156
v -1.52886 0.1779099 -3.943546
v 0.6879047 1.361879 -2.48895
v 1.419381 0.5892619 -0.905886
v 1.340207 1.417016 -1.025196
v 0.6404048 0.7421044 -2.528411
v -0.46061 -0.5816895 -3.861156
v -0.9919895 0.3450002 -5.456073
v -1.52886 0.1779099 -3.943546
v -0.6960411 -0.9315798 -3.725394
v 0.002640076 -1.674984 -1.481086
v -0.46061 -0.5816895 -3.861156
v -0.5059028 -2.136055 -1.472926
v 0.002640076 -1.674984 -1.481086
v 1.39147 -1.952716 -0.2179001
v 0.6248384 -1.697862 -1.909226
v 0.5778974 -2.302057 0.8835698
v 0.3491755 -1.020349 -3.050692
v 0.002640076 -1.674984 -1.481086
v 0.6248384 -1.697862 -1.909226
v 1.419381 0.5892619 -0.905886
v 1.413716 -0.117839 -1.323123
v 2.155239 0.03278384 -0.11488
v -0.3855353 -0.002517592 -5.286853
v -0.9919895 0.3450002 -5.456073
v -0.46061 -0.5816895 -3.861156
v -0.3855353 -0.002517592 -5.286853
v -0.5848426 0.5027223 -5.691128
v -0.9919895 0.3450002 -5.456073
v -0.100134 0.7942479 -5.056553
v -0.8640699 1.170206 -3.989807
v -0.7692054 0.9396503 -5.179584
v 0.6404048 0.7421044 -2.528411
v -0.7692054 0.9396503 -5.179584
v -0.5848426 0.5027223 -5.691128
v -0.100134 0.7942479 -5.056553
v -0.7593148 0.7277383 -5.572462
v -0.100134 0.7942479 -5.056553
v -0.5848426 0.5027223 -5.691128
v -0.250536 0.4285724 -5.540162
v -0.5848426 0.5027223 -5.691128
v -0.7593148 0.7277383 -5.572462
v -0.9919895 0.3450002 -5.456073
v -0.3855353 -0.002517592 -5.286853
v -0.250536 0.4285724 -5.540162
v -0.5848426 0.5027223 -5.691128
v -0.7167537 1.816891 -3.587575
v 0.6404048 0.7421044 -2.528411
v 0.6879047 1.361879 -2.48895
v -0.8640699 1.170206 -3.989807
v 0.3491755 -1.020349 -3.050692
v 0.1760627 -0.8674685 -3.919666
v -0.46061 -0.5816895 -3.861156
v 0.5448151 -0.03402019 -4.569062
v -0.46061 -0.5816895 -3.861156
v 0.1760627 -0.8674685 -3.919666
v 0.1754096 0.1286733 -4.536412
v 0.5448151 -0.03402019 -4.569062
v 0.275394 0.3539246 -4.369314
v 0.1754096 0.1286733 -4.536412
v 0.275394 0.3539246 -4.369314
v 1.05025 0.356647 -1.969417
v 0.6404048 0.7421044 -2.528411
v -0.100134 0.7942479 -5.056553
v 0.275394 0.3539246 -4.369314
v 0.6404048 0.7421044 -2.528411
v 0.1754096 0.1286733 -4.536412
v -0.3855353 -0.002517592 -5.286853
v -0.46061 -0.5816895 -3.861156
v -0.250536 0.4285724 -5.540162
v 0.275394 0.3539246 -4.369314
v -0.250536 0.4285724 -5.540162
v 0.1754096 0.1286733 -4.536412
v -0.100134 0.7942479 -5.056553
v -2.285968 -1.253227 0.8833115
v -2.40231 -0.7673802 -1.593831
v -2.961038 -0.9268802 0.8831928
v -1.834686 -0.8499764 -1.592495
v -1.218964 -0.2306613 -3.529358
v -2.454904 0.5251378 -1.819383
v -2.40231 -0.7673802 -1.593831
v -2.944121 1.119493 0.8832246
v -2.961038 -0.9268802 0.8831928
v -0.46061 -0.5816895 -3.861156
v -1.208847 -0.6799434 -3.549135
v -0.6960411 -0.9315798 -3.725394
v -1.218964 -0.2306613 -3.529358
v -1.218964 -0.2306613 -3.529358
v -1.563928 -1.077071 -2.544123
v -1.208847 -0.6799434 -3.549135
v -1.551886 -0.5650616 -2.462198
v -1.834686 -0.8499764 -1.592495
v -1.563928 -1.077071 -2.544123
v -1.920205 -1.784532 -0.7482811
v -0.5059028 -2.136055 -1.472926
v 0.5778974 -2.302057 0.8835698
v 0.002640076 -1.674984 -1.481086
v 0.1647012 -2.715823 0.8834481
v -2.285968 -1.253227 0.8833115
v -1.920205 -1.784532 -0.7482811
v -1.834686 -0.8499764 -1.592495
v -2.146648 -1.880993 0.8833616
v 0.275394 0.3539246 -4.369314
v 1.397633 -0.04427047 -2.160806
v 1.05025 0.356647 -1.969417
v 0.5448151 -0.03402019 -4.569062
v 1.521219 -0.4932666 -1.519733
v 1.947329 -0.7707506 -0.2758832
v 1.413716 -0.117839 -1.323123
v 1.521219 -0.4932666 -1.519733
v 1.413716 -0.117839 -1.323123
v 1.397633 -0.04427047 -2.160806
v 1.413716 -0.117839 -1.323123
v 1.947329 -0.7707506 -0.2758832
v 2.155239 0.03278384 -0.11488
v 1.413716 -0.117839 -1.323123
v 1.419381 0.5892619 -0.905886
v 1.05025 0.356647 -1.969417
v 1.413716 -0.117839 -1.323123
v 1.05025 0.356647 -1.969417
v 1.397633 -0.04427047 -2.160806
v 1.05025 0.356647 -1.969417
v 1.419381 0.5892619 -0.905886
v 0.6404048 0.7421044 -2.528411
v 0.3491755 -1.020349 -3.050692
v -0.46061 -0.5816895 -3.861156
v 0.002640076 -1.674984 -1.481086
v 1.723453 1.606104 0.8836774
v 1.822866 0.7062378 0.8837277
v -2.285968 -1.253227 0.8833115
v -2.944121 1.119493 0.8832246
v -2.961038 -0.9268802 0.8831928
v -2.461005 1.314793 0.8833012
v -2.285968 -1.253227 0.8833115
v -2.944121 1.119493 0.8832246
v -2.001938 2.208681 0.8835312
v -1.320411 2.856797 0.8837648
v 1.723453 1.606104 0.8836774
v -2.285968 -1.253227 0.8833115
v -1.320411 2.856797 0.8837648
v -2.285968 -1.253227 0.8833115
v 1.822866 0.7062378 0.8837277
v 2.474745 0.151204 0.8837662
v -2.285968 -1.253227 0.8833115
v 2.474745 0.151204 0.8837662
v 0.5778974 -2.302057 0.8835698
v 0.5778974 -2.302057 0.8835698
v 2.474745 0.151204 0.8837662
v 1.470157 -2.304079 0.8834705
v -2.146648 -1.880993 0.8833616
v 0.5778974 -2.302057 0.8835698
v 0.1647012 -2.715823 0.8834481
v -2.285968 -1.253227 0.8833115
v 0.5778974 -2.302057 0.8835698
v -2.146648 -1.880993 0.8833616

vn 0.9800191 0.06563991 -0.1877607
vn 0.9791609 0.06787019 -0.1914092
vn 0.9735138 0.09918245 -0.2059943
vn 0.9793105 0.06559245 -0.1914384
vn 0.4172917 0.8925617 -0.1708836
vn 0.3843003 0.9226258 -0.03278753
vn 0.3787331 0.9254526 -0.009926472
vn 0.427153 0.8848169 -0.1861167
vn 0.4346194 0.8738137 -0.2180722
vn 0.4423214 0.8739662 -0.2013325
vn -0.7875006 0.6104656 -0.0847021
vn -0.7057736 0.6592307 -0.2594195
vn -0.6593013 0.7508709 -0.03891709
vn -0.8028215 0.5479333 -0.2350466
vn -0.8830352 0.4575312 -0.1044696
vn -0.8477844 0.421605 -0.3217311
vn -0.782027 0.4806606 -0.3967357
vn -0.811241 0.4968183 -0.3083174
vn -0.8134211 0.4151042 -0.4074736
vn -0.8105263 0.5105857 -0.286966
vn -0.8460587 0.4707108 -0.250232
vn -0.8572232 0.443102 -0.262353
vn -0.8575127 0.4424888 -0.2624416
vn -0.782027 0.4806606 -0.3967357
vn -0.5193731 0.5723782 -0.6345351
vn -0.5307937 0.6840832 -0.5002882
vn -0.5494538 0.7188687 -0.4258267
vn -0.3815622 0.919565 -0.09386431
vn -0.3613435 0.9285155 -0.08538073
vn -0.7691752 -0.6364009 -0.05799337
vn -0.7666954 -0.6391035 -0.06103048
vn -0.7689422 -0.6363989 -0.06102716
vn -0.112915 -0.9384152 -0.326538
vn -0.1128828 -0.9373847 -0.3294957
vn -0.1388336 -0.9283541 -0.3447954
vn -0.112915 -0.9384152 -0.326538
vn -0.4661453 -0.771314 -0.4333396
vn -0.4257116 -0.8064106 -0.4104531
vn -0.3740227 -0.8823882 -0.2854786
vn -0.5142089 -0.7194347 -0.4669078
vn -0.3327475 -0.9203981 -0.2052961
vn -0.3417296 -0.9351795 -0.09306028
vn -0.3374431 -0.9349867 -0.1092345
vn 0.7128134 0.6761807 -0.1862168
vn 0.7109447 0.6781436 -0.1862225
vn 0.6378446 0.7324532 -0.2380473
vn 0.7141489 0.6756185 -0.1831151
vn 0.9265637 -0.34832 -0.1419612
vn 0.8744737 -0.404425 -0.2678362
vn 0.918934 -0.3724584 -0.1297498
vn 0.8982138 -0.3888701 -0.2049193
vn 0.794706 -0.4328173 -0.4255719
vn 0.9516885 -0.200151 -0.2328701
vn 0.78347 -0.4409402 -0.4378887
vn 0.7796397 -0.4795032 -0.4027884
vn 0.7771779 -0.5341429 -0.3326947
vn 0.7768593 -0.5723423 -0.2625144
vn 0.7798495 -0.5609699 -0.2777546
vn -0.02744812 -0.9515349 -0.3063134
vn -0.02821491 -0.9516813 -0.3057886
vn -0.02744652 -0.9514793 -0.3064861
vn -0.5188548 -0.7695075 -0.3723546
vn -0.5172818 -0.770582 -0.3723208
vn -0.5202999 -0.7714858 -0.3661935
vn 0.899482 -0.04272349 -0.4348641
vn 0.9000111 -0.04042422 -0.4339884
vn 0.9124888 0.02746622 -0.4081785
vn 0.8979918 -0.04272518 -0.4379331
vn -0.5420875 -0.7931034 -0.2777197
vn -0.5408174 -0.792919 -0.2807063
vn -0.5432232 -0.7923275 -0.2777152
vn 0.6074486 -0.6753669 -0.4181933
vn 0.6080933 -0.6776173 -0.4135907
vn 0.6710358 -0.6122867 -0.4181099
vn 0.6081459 -0.6775829 -0.4135697
vn 0.04313977 -0.9647757 -0.2595125
vn 0.03815046 -0.9644434 -0.2615214
vn -0.105344 -0.9893176 -0.1007638
vn 0.04464844 -0.9647117 -0.2594952
vn -0.3227272 -0.8461099 -0.4241994
vn -0.3234853 -0.8466416 -0.422558
vn -0.3229353 -0.8474189 -0.4214191
vn 0.7938001 0.3041628 -0.5266558
vn 0.7955448 0.304628 -0.5237464
vn 0.7948933 0.3037825 -0.5252246
vn -0.3844864 -0.8500097 -0.3600745
vn -0.3828684 -0.8507764 -0.3599879
vn -0.3830667 -0.8493093 -0.3632266
vn -0.171273 -0.6589893 -0.7323924
vn -0.169447 -0.6522182 -0.7388498
vn -0.1716247 -0.6590389 -0.7322655
vn 0.3447321 0.9348021 -0.08546763
vn 0.3417271 0.9366985 -0.07627837
vn 0.2357418 0.9544109 -0.1831004
vn 0.3457039 0.9348503 -0.08089317
vn 0.6419178 0.6800817 -0.3541616
vn 0.6394022 0.6825122 -0.3540365
vn 0.2723452 0.7745861 -0.5708279
vn 0.6408023 0.681234 -0.353967
vn 0.4274186 0.6498517 -0.628495
vn 0.4216973 0.6477973 -0.6344525
vn 0.4282131 0.655004 -0.622578
vn -0.507737 0.05184101 -0.859951
vn -0.5242847 0.05349843 -0.8498608
vn -0.5160249 0.05267119 -0.8549526
vn 0.2438904 -0.5500275 -0.798741
vn 0.2417828 -0.5510132 -0.7987024
vn 0.2408122 -0.5425896 -0.8047397
vn 0.7095988 0.2487411 -0.6592401
vn 0.7107572 0.2463246 -0.6588994
vn 0.6147852 0 -0.7886946
vn 0.7121587 0.2488357 -0.6564378
vn -0.4135535 -0.9064605 -0.08545755
vn -0.4137883 -0.9076647 -0.07017239
vn -0.4127778 -0.9068142 -0.08545492
vn -0.2929638 -0.5052006 -0.811754
vn -0.2936823 -0.504981 -0.811631
vn -0.2994108 -0.5007353 -0.8121683
vn -0.2906155 -0.5019029 -0.8146387
vn 0.1652209 0.541666 -0.8241966
vn 0.1637519 0.5337665 -0.8296256
vn 0.1651638 0.5374499 -0.8269634
vn 0.8259386 0.4906037 -0.277729
vn 0.8287237 0.4918162 -0.2670841
vn 0.8303387 0.4907241 -0.2640599
vn 0.8942221 0.3669582 -0.2563367
vn 0.8945295 0.366204 -0.2563428
vn 0.8946057 0.3660791 -0.2562554
vn 0.7321914 -0.4987446 -0.463842
vn 0.736711 -0.5031983 -0.4517172
vn 0.561889 -0.7735987 -0.2929604
vn 0.7311718 -0.500165 -0.4639212
vn 0.9026224 0.1518038 -0.4027759
vn 0.90783 0.1525765 -0.3905958
vn 0.9061431 -0.09584022 -0.4119699
vn 0.9024823 0.1525752 -0.4027985
vn -0.1433956 -0.9709713 -0.1914484
vn -0.1388476 -0.9711704 -0.1937763
vn -0.4119832 -0.896445 -0.1632674
vn -0.1434386 -0.9704993 -0.1937947
vn -0.8298345 -0.1283269 -0.5430534
vn -0.9328405 -0.09847497 -0.3465708
vn -0.934402 -0.07557664 -0.3481106
vn -0.9883008 0.01525156 -0.151753
vn -0.9843256 0.01142793 -0.1759901
vn -0.3871244 0.03203788 -0.9214706
vn -0.3867906 0.03280473 -0.9215839
vn -0.3673686 -0.1082289 -0.9237568
vn -0.3917825 0.03188483 -0.9195052
vn -0.9583108 0.06714279 -0.277727
vn -0.9582614 0.06790227 -0.2777127
vn -0.9419829 -0.006101913 -0.3356053
vn -0.9583353 0.06676301 -0.2777341
vn -0.9614052 -0.1297134 -0.2426404
vn -0.9607608 -0.131914 -0.2440027
vn -0.9610357 -0.131189 -0.2433098
vn 0.7004067 -0.6180059 -0.3570701
vn 0.7002158 -0.6178375 -0.3577355
vn 0.6314672 -0.7018752 -0.3295762
vn 0.7024205 -0.6162386 -0.3561676
vn -0.9624478 -0.2219273 -0.1563406
vn -0.9617278 -0.2244031 -0.1572349
vn -0.9742513 -0.09467645 -0.2046233
vn -0.962725 -0.2212284 -0.1556227
vn 0.7270087 0.6369908 -0.2563221
vn 0.7262732 0.6378254 -0.2563317
vn 0.6820001 0.6961131 -0.2242819
vn 0.7278205 0.6360562 -0.2563393
vn 0.8992146 0.3755633 -0.224422
vn 0.8985705 0.3760571 -0.2261682
vn 0.8991824 0.3756453 -0.224414
vn 0.9622299 0.2721997 0.004574785
vn 0.96218 0.2723762 0.004574548
vn 0.9616649 0.274189 0.004579357
vn 0.8530088 -0.1190245 -0.5081429
vn 0.8517576 -0.1182997 -0.5104058
vn 0.852831 -0.1187136 -0.5085139
vn 0.9098764 0.2057145 -0.3602867
vn 0.9098049 0.20608 -0.3602583
vn 0.9100789 0.2052064 -0.3600647
vn 0.7659855 0.6414365 0.04272429
vn 0.7639011 0.6437069 0.04578828
vn 0.7644398 0.6435657 0.0381457
vn 0.8530591 0.3624357 -0.375407
vn 0.8531925 0.3636371 -0.3739395
vn 0.8540042 0.3632761 -0.3724343
vn -0.09266491 -0.910633 -0.402692
vn -0.09307574 -0.9132103 -0.3967163
vn -0.09234836 -0.9125923 -0.3983054
vn -0.0001215321 4.244612E-05 1
vn -0.0001215321 4.244613E-05 1
vn -0.0001215321 4.244612E-05 1
vn -0.0001826391 -1.40369E-05 1
vn -0.0001826391 -1.40369E-05 1
vn -0.0001558786 -6.613989E-06 1
vn -0.0001558786 -6.613988E-06 1
vn -0.0001558786 -6.613988E-06 1
vn -0.0004491106 -2.660078E-05 0.9999999
vn -0.0003063414 -3.831417E-05 0.9999999
vn -1.515197E-05 -0.0001067226 1
vn -1.515196E-05 -0.0001067225 1
vn -1.515197E-05 -0.0001067226 1
vn -8.614438E-05 -3.175895E-05 1
vn -8.614438E-05 -3.175894E-05 1
vn -8.614438E-05 -3.175895E-05 1
vn -9.313264E-05 -8.070275E-06 1
vn -9.313264E-05 -8.070275E-06 1
vn -9.313264E-05 -8.070275E-06 1
vn 0.0001108681 -0.0001658026 1
vn 0.0001108681 -0.0001658026 1
vn 0.0001108682 -0.0001658026 1
vn -0.0001055522 -0.0001886934 1
vn -0.0001055522 -0.0001886934 1
vn -0.0001055522 -0.0001886934 1
vn -6.632563E-05 6.512719E-05 1
vn -6.632564E-05 6.512721E-05 1
vn -6.632563E-05 6.51272E-05 1

vt 0.917987 0.5307527
vt 0.9527482 0.6749519
vt 0.9921013 0.5279812
vt 0.9027036 0.6758579
vt 0.7352076 0.6942858
vt 0.917987 0.5307527
vt 0.7520974 0.5321119
vt 0.9027036 0.6758579
vt 0.8694628 0.7542974
vt 0.7140806 0.813949
vt 0.7200974 0.5487375
vt 0.7352076 0.6942858
vt 0.7520974 0.5321119
vt 0.6830463 0.7060264
vt 0.6568827 0.5636129
vt 0.618561 0.7249303
vt 0.7140806 0.813949
vt 0.7072794 0.8524702
vt 0.6830463 0.7060264
vt 0.6202588 0.8548085
vt 0.7055823 0.9248078
vt 0.661486 0.9433799
vt 0.6852275 0.9455757
vt 0.7140806 0.813949
vt 0.5628218 0.8378107
vt 0.618561 0.7249303
vt 0.5942495 0.7089488
vt 0.6394777 0.5423723
vt 0.6568827 0.5636129
vt 0.618561 0.7249303
vt 0.5628218 0.8378107
vt 0.6202588 0.8548085
vt 0.5241978 0.7751392
vt 0.5403346 0.6735071
vt 0.4911944 0.7215877
vt 0.5628218 0.8378107
vt 0.3832571 0.8213787
vt 0.4574085 0.7743697
vt 0.3482083 0.6381534
vt 0.420363 0.8197206
vt 0.4379256 0.6273745
vt 0.4470904 0.5597041
vt 0.3132128 0.5285314
vt 0.02827017 0.5458689
vt 0.1043922 0.6020461
vt 0.09395441 0.5292715
vt 0.06634919 0.6783575
vt 0.09395441 0.5292715
vt 0.2282899 0.5912431
vt 0.249799 0.5213928
vt 0.1562494 0.5971893
vt 0.175432 0.7060444
vt 0.1043922 0.6020461
vt 0.2669281 0.702978
vt 0.1585191 0.7374721
vt 0.2630785 0.773509
vt 0.2806789 0.8308315
vt 0.2186386 0.8810945
vt 0.2282899 0.5912431
vt 0.2922538 0.5178041
vt 0.249799 0.5213928
vt 0.5628218 0.8378107
vt 0.5332156 0.8845842
vt 0.6202588 0.8548085
vt 0.8694628 0.7542974
vt 0.9527482 0.6749519
vt 0.9027036 0.6758579
vt 0.857805 0.7818066
vt 0.5332156 0.8845842
vt 0.661486 0.9433799
vt 0.6202588 0.8548085
vt 0.3184358 0.8269334
vt 0.3162368 0.6959521
vt 0.3107213 0.8515067
vt 0.3482083 0.6381534
vt 0.3162368 0.6959521
vt 0.2282899 0.5912431
vt 0.2669281 0.702978
vt 0.2922538 0.5178041
vt 0.2630785 0.773509
vt 0.3162368 0.6959521
vt 0.2669281 0.702978
vt 0.06634919 0.6783575
vt 0.1452378 0.7064864
vt 0.1043922 0.6020461
vt 0.6247709 0.9675071
vt 0.661486 0.9433799
vt 0.5332156 0.8845842
vt 0.6247709 0.9675071
vt 0.6842746 0.9674951
vt 0.661486 0.9433799
vt 0.7513428 0.9377769
vt 0.7072794 0.8524702
vt 0.7055823 0.9248078
vt 0.857805 0.7818066
vt 0.7055823 0.9248078
vt 0.6842746 0.9674951
vt 0.7513428 0.9377769
vt 0.6852275 0.9455757
vt 0.1934405 0.9483444
vt 0.236848 0.9877188
vt 0.2319546 0.9657518
vt 0.6842746 0.9674951
vt 0.6852275 0.9455757
vt 0.661486 0.9433799
vt 0.2615395 0.9473111
vt 0.2319546 0.9657518
vt 0.236848 0.9877188
vt 0.7140806 0.813949
vt 0.857805 0.7818066
vt 0.8694628 0.7542974
vt 0.7072794 0.8524702
vt 0.2630785 0.773509
vt 0.2806789 0.8308315
vt 0.3107213 0.8515067
vt 0.2186386 0.8810945
vt 0.3107213 0.8515067
vt 0.2806789 0.8308315
vt 0.2209059 0.8955094
vt 0.2186386 0.8810945
vt 0.1987075 0.8907744
vt 0.2209059 0.8955094
vt 0.1987075 0.8907744
vt 0.1252237 0.7562528
vt 0.108487 0.8004488
vt 0.1934405 0.9483444
vt 0.1987075 0.8907744
vt 0.108487 0.8004488
vt 0.2209059 0.8955094
vt 0.2615395 0.9473111
vt 0.3107213 0.8515067
vt 0.2319546 0.9657518
vt 0.1987075 0.8907744
vt 0.2319546 0.9657518
vt 0.2209059 0.8955094
vt 0.1934405 0.9483444
vt 0.4707265 0.5779454
vt 0.5403346 0.6735071
vt 0.5090353 0.5752513
vt 0.4911944 0.7215877
vt 0.5628218 0.8378107
vt 0.5942495 0.7089488
vt 0.5403346 0.6735071
vt 0.6394777 0.5423723
vt 0.5090353 0.5752513
vt 0.5332156 0.8845842
vt 0.5258871 0.8396413
vt 0.5070852 0.8643906
vt 0.5628218 0.8378107
vt 0.5628218 0.8378107
vt 0.5019798 0.7726544
vt 0.5258871 0.8396413
vt 0.5241978 0.7751392
vt 0.4911944 0.7215877
vt 0.5019798 0.7726544
vt 0.4379256 0.6273745
vt 0.3482083 0.6381534
vt 0.2922538 0.5178041
vt 0.3162368 0.6959521
vt 0.3132128 0.5285314
vt 0.4707265 0.5779454
vt 0.4379256 0.6273745
vt 0.4911944 0.7215877
vt 0.4470904 0.5597041
vt 0.1987075 0.8907744
vt 0.1585191 0.7374721
vt 0.1252237 0.7562528
vt 0.2186386 0.8810945
vt 0.175432 0.7060444
vt 0.1562494 0.5971893
vt 0.1452378 0.7064864
vt 0.175432 0.7060444
vt 0.1452378 0.7064864
vt 0.1585191 0.7374721
vt 0.1452378 0.7064864
vt 0.1562494 0.5971893
vt 0.1043922 0.6020461
vt 0.1452378 0.7064864
vt 0.06634919 0.6783575
vt 0.1252237 0.7562528
vt 0.1452378 0.7064864
vt 0.1252237 0.7562528
vt 0.1585191 0.7374721
vt 0.1252237 0.7562528
vt 0.06634919 0.6783575
vt 0.108487 0.8004488
vt 0.2630785 0.773509
vt 0.3107213 0.8515067
vt 0.3162368 0.6959521
vt 0.8042631 0.2926725
vt 0.7749518 0.3101888
vt 0.8137917 0.5074639
vt 0.9136124 0.4902528
vt 0.8351565 0.5154306
vt 0.9383279 0.4498581
vt 0.8137917 0.5074639
vt 0.9136124 0.4902528
vt 0.9467341 0.3957438
vt 0.9089628 0.3308674
vt 0.8042631 0.2926725
vt 0.8137917 0.5074639
vt 0.9089628 0.3308674
vt 0.8137917 0.5074639
vt 0.7749518 0.3101888
vt 0.7400872 0.3036157
vt 0.8137917 0.5074639
vt 0.7400872 0.3036157
vt 0.6881506 0.3749968
vt 0.6881506 0.3749968
vt 0.7400872 0.3036157
vt 0.6381031 0.3446696
vt 0.7595143 0.5052363
vt 0.6881506 0.3749968
vt 0.6518065 0.4011886
vt 0.8137917 0.5074639
vt 0.6881506 0.3749968
vt 0.7595143 0.5052363

g MB0009_01_07
usemtl MB0009_01_07
usemap MB0009_01_07
f 1/1/1 3/3/3 2/2/2
f 2/2/2 4/4/4 1/1/1
f 5/5/5 7/7/7 6/6/6
f 6/6/6 8/8/8 5/5/5
f 5/5/5 8/8/8 9/9/9
f 9/9/9 10/10/10 5/5/5
f 11/11/11 13/13/13 12/12/12
f 12/12/12 14/14/14 11/11/11
f 15/15/15 11/11/11 14/14/14
f 14/14/14 16/16/16 15/15/15
f 14/14/14 12/12/12 17/17/17
f 16/16/16 19/19/19 18/18/18
f 16/16/16 18/18/18 20/20/20
f 20/20/20 18/18/18 21/21/21
f 21/21/21 22/22/22 20/20/20
f 22/22/22 21/21/21 23/23/23
f 24/24/24 18/18/18 19/19/19
f 25/25/25 27/27/27 26/26/26
f 26/26/26 27/27/27 28/28/28
f 28/28/28 29/29/29 26/26/26
f 30/30/30 32/32/32 31/31/31
f 33/33/33 35/35/35 34/34/34
f 34/34/34 36/36/36 33/33/33
f 37/37/37 39/39/39 38/38/38
f 38/38/38 40/40/40 37/37/37
f 39/39/39 41/41/41 38/38/38
f 42/42/42 41/41/41 39/39/39
f 39/39/39 43/43/43 42/42/42
f 44/44/44 46/46/46 45/45/45
f 45/45/45 47/47/47 44/44/44
f 48/48/48 50/50/50 49/49/49
f 49/49/49 51/51/51 48/48/48
f 49/49/49 52/52/52 51/51/51
f 51/51/51 53/53/53 48/48/48
f 49/49/49 54/54/54 52/52/52
f 54/54/54 55/55/55 52/52/52
f 55/55/55 54/54/54 56/56/56
f 57/57/57 55/55/55 56/56/56
f 57/57/57 58/58/58 55/55/55
f 59/59/59 61/61/61 60/60/60
f 62/62/62 64/64/64 63/63/63
f 65/65/65 67/67/67 66/66/66
f 66/66/66 68/68/68 65/65/65
f 69/69/69 71/71/71 70/70/70
f 72/72/72 74/74/74 73/73/73
f 73/73/73 75/75/75 72/72/72
f 76/76/76 78/78/78 77/77/77
f 77/77/77 79/79/79 76/76/76
f 80/80/80 82/82/82 81/81/81
f 83/83/83 85/85/85 84/84/84
f 86/86/86 88/88/88 87/87/87
f 89/89/89 91/91/91 90/90/90
f 92/92/92 94/94/94 93/93/93
f 93/93/93 95/95/95 92/92/92
f 96/96/96 98/98/98 97/97/97
f 97/97/97 99/99/99 96/96/96
f 100/100/100 102/102/102 101/101/101
f 103/103/103 105/105/105 104/104/104
f 106/106/106 108/108/108 107/107/107
f 109/109/109 111/111/111 110/110/110
f 110/110/110 112/112/112 109/109/109
f 113/113/113 115/115/115 114/114/114
f 116/116/116 118/118/118 117/117/117
f 117/117/117 119/119/119 116/116/116
f 120/120/120 122/122/122 121/121/121
f 123/123/123 125/125/125 124/124/124
f 126/126/126 128/128/128 127/127/127
f 129/129/129 131/131/131 130/130/130
f 130/130/130 132/132/132 129/129/129
f 133/133/133 135/135/135 134/134/134
f 134/134/134 136/136/136 133/133/133
f 137/137/137 139/139/139 138/138/138
f 138/138/138 140/140/140 137/137/137
f 141/141/141 143/143/143 142/142/142
f 144/144/144 142/142/142 143/143/143
f 143/143/143 145/145/145 144/144/144
f 146/146/146 148/148/148 147/147/147
f 147/147/147 149/149/149 146/146/146
f 150/150/150 152/152/152 151/151/151
f 151/151/151 153/153/153 150/150/150
f 154/154/154 153/153/153 155/155/155
f 155/155/155 156/156/156 154/154/154
f 157/157/157 159/159/159 158/158/158
f 158/158/158 160/160/160 157/157/157
f 161/161/161 163/163/163 162/162/162
f 162/162/162 164/164/164 161/161/161
f 165/165/165 167/167/167 166/166/166
f 166/166/166 168/168/168 165/165/165
f 169/169/169 171/171/171 170/170/170
f 172/172/172 174/174/174 173/173/173
f 175/175/175 177/177/177 176/176/176
f 178/178/178 180/180/180 179/179/179
f 181/181/181 183/183/183 182/182/182
f 184/184/184 186/186/186 185/185/185
f 187/187/187 189/189/189 188/188/188
f 190/190/190 192/192/192 191/191/191
f 193/193/193 194/194/194 192/192/192
f 195/195/195 197/197/197 196/196/196
f 198/198/198 195/195/195 196/196/196
f 199/199/199 198/198/198 196/196/196
f 200/200/200 202/202/202 201/201/201
f 203/203/203 205/205/205 204/204/204
f 206/206/206 208/208/208 207/207/207
f 209/209/209 211/211/211 210/210/210
f 212/212/212 214/214/214 213/213/213
f 215/215/215 217/217/217 216/216/216
