#MB0008_03_03_L.obj

v -1.608348 0.7210663 0.1481813
v -0.1563177 1.852792 0.2455949
v -0.7344067 2.239136 1.55862
v -2.579299 -0.8403473 0.9731737
v 1.322817 1.528353 2.299615
v 1.356345 1.624604 0.4454647
v -0.4443567 1.846073 2.342334
v -0.1977899 -0.8491084 2.931194
v 2.429462 -0.3190873 2.083036
v 1.356345 1.624604 0.4454647
v 2.5793 -0.3190872 0.7940963
v 1.602929 -2.239141 2.11934
v 1.612294 -2.107586 0.6990134
v -1.663052 0.6891406 2.159803
v -2.5329 -0.6206589 2.142452
v -0.5486694 -1.525472 2.294665
v -0.4929272 -1.474509 0.3368948
v 2.5793 -0.3190872 0.7940963
v 1.356345 1.624604 0.4454647
v -0.1563177 1.852792 0.2455949
v -0.4929272 -1.474509 0.3368948
v 1.612294 -2.107586 0.6990134
v -1.608348 0.7210663 0.1481813
v -2.579299 -0.8403473 0.9731737

vn -0.5252666 0.3113181 -0.7919445
vn -0.08107851 0.6965661 -0.7128969
vn -0.386329 0.9136846 0.1262151
vn -0.8541519 -0.3484268 -0.3860355
vn 0.5063642 0.6357722 0.582571
vn 0.5303609 0.5985878 -0.6003416
vn -0.139009 0.6206294 0.7716836
vn -0.07423629 -0.1995979 0.9770617
vn 0.8365686 0.05717641 0.5448706
vn 0.5303609 0.5985878 -0.6003416
vn 0.85695 0.02410192 -0.5148356
vn 0.3702084 -0.8022277 0.4683764
vn 0.3702199 -0.7459093 -0.5536755
vn -0.6947482 0.4465779 0.5638202
vn -0.8574947 -0.2039323 0.47235
vn -0.3084424 -0.847579 0.4318253
vn -0.1959232 -0.665255 -0.7204512
vn 0.85695 0.02410192 -0.5148356
vn 0.5303609 0.5985878 -0.6003416
vn -0.08107851 0.6965661 -0.7128969
vn -0.1959232 -0.665255 -0.7204512
vn 0.3702199 -0.7459093 -0.5536755
vn -0.5252666 0.3113181 -0.7919445
vn -0.8541519 -0.3484268 -0.3860355

vt 0.3125 0
vt 0.25 0
vt 0.25 0.5
vt 0.375 0
vt 0.25 0.5
vt 0.25 0
vt 0.28125 0.5
vt 0.3125 0.5
vt 0.3125 0.5
vt 1 0.75
vt 0.6875 0.375
vt 0.375 0.5
vt 0.375 0
vt 0.3125 0.5
vt 0.375 0.5
vt 0.375 0.5
vt 0.375 0
vt 1 0.6875
vt 1 0.75
vt 0.25 0
vt 0.6875 0.3125
vt 1 0.625
vt 0.3125 0
vt 0.375 0

g MB0008_03_03_L
usemtl MB0008_03_03_L
usemap MB0008_03_03_L
f 1/1/1 3/3/3 2/2/2
f 1/1/1 4/4/4 3/3/3
f 5/5/5 2/2/2 3/3/3
f 5/5/5 6/6/6 2/2/2
f 5/5/5 3/3/3 7/7/7
f 5/5/5 7/7/7 8/8/8
f 5/5/5 8/8/8 9/9/9
f 9/9/9 10/10/10 5/5/5
f 9/9/9 11/11/11 10/10/10
f 12/12/12 11/11/11 9/9/9
f 12/12/12 9/9/9 8/8/8
f 12/12/12 13/13/13 11/11/11
f 8/8/8 7/7/7 14/14/14
f 7/7/7 3/3/3 14/14/14
f 4/4/4 14/14/14 3/3/3
f 8/8/8 14/14/14 15/15/15
f 4/4/4 15/15/15 14/14/14
f 16/16/16 15/15/15 4/4/4
f 8/8/8 15/15/15 16/16/16
f 13/13/13 12/12/12 16/16/16
f 16/16/16 12/12/12 8/8/8
f 16/16/16 4/4/4 17/17/17
f 13/13/13 16/16/16 17/17/17
f 18/18/18 20/20/20 19/19/19
f 18/18/18 21/21/21 20/20/20
f 18/18/18 22/22/22 21/21/21
f 21/21/21 23/23/23 20/20/20
f 21/21/21 24/24/24 23/23/23
