#Plane001031.obj

v 0.576884 -0.1147498 -5.05989E-08
v 0.2704958 -0.05380514 -5.326287E-08
v 0.588186 -3.444134E-07 -5.93224E-08
v 0.2757951 -1.614924E-07 -5.932241E-08
v 0.2548014 -0.1055424 -4.729371E-08
v 0.5434128 -0.2250894 -4.206814E-08
v 0.2293152 -0.1532238 -4.150184E-08
v 0.4890585 -0.326779 -3.39155E-08
v 0.1950164 -0.1950168 -3.596736E-08
v 0.4159099 -0.4159107 -2.631178E-08
v 0.1532234 -0.2293154 -3.076046E-08
v 0.3267782 -0.4890591 -1.940671E-08
v 0.105542 -0.2548016 -2.593878E-08
v 0.2250885 -0.5434132 -1.332316E-08
v 0.05380471 -0.2704959 -2.154511E-08
v 0.1147488 -0.5768843 -8.152444E-09
v -2.422333E-07 -0.2757951 -1.760582E-08
v -5.329132E-07 -0.588186 -3.950784E-09
v -0.05380519 -0.2704958 -1.412981E-08
v -0.1147499 -0.576884 -7.371582E-10
v -0.1055424 -0.2548014 -1.110819E-08
v -0.2250895 -0.5434127 1.507416E-09
v -0.1532238 -0.2293151 -8.514577E-09
v -0.326779 -0.4890585 2.839164E-09
v -0.1950168 -0.1950164 -6.306171E-09
v -0.4159106 -0.4159099 3.34939E-09
v -0.2293154 -0.1532234 -4.425354E-09
v -0.489059 -0.3267782 3.160969E-09
v -0.2548015 -0.105542 -2.801923E-09
v -0.5434132 -0.2250886 2.423623E-09
v -0.2704958 -0.05380477 -1.355781E-09
v -0.5768842 -0.114749 1.308175E-09
v -0.2757951 1.856032E-07 -2.139576E-14
v -0.588186 3.958343E-07 -3.058525E-14
v -0.2704958 0.05380513 1.355739E-09
v -0.5768841 0.1147498 -1.308235E-09
v -0.2548014 0.1055424 2.801881E-09
v -0.5434128 0.2250893 -2.423682E-09
v -0.2293152 0.1532237 4.425314E-09
v -0.4890586 0.3267789 -3.161024E-09
v -0.1950165 0.1950167 6.306133E-09
v -0.41591 0.4159105 -3.349442E-09
v -0.1532234 0.2293154 8.51454E-09
v -0.3267784 0.4890589 -2.839211E-09
v -0.1055421 0.2548015 1.110815E-08
v -0.2250888 0.543413 -1.507456E-09
v -0.05380483 0.2704958 1.412978E-08
v -0.1147491 0.5768842 7.371235E-10
v 9.689331E-08 0.2757951 1.760579E-08
v 2.422333E-07 0.588186 3.950758E-09
v 0.05380505 0.2704958 2.154508E-08
v 0.1147496 0.5768841 8.152427E-09
v 0.1055423 0.2548015 2.593876E-08
v 0.2250892 0.5434129 1.332315E-08
v 0.1532237 0.2293152 3.076045E-08
v 0.3267788 0.4890586 1.94067E-08
v 0.1950167 0.1950165 3.596734E-08
v 0.4159105 0.4159101 2.631178E-08
v 0.2293154 0.1532234 4.150182E-08
v 0.4890589 0.3267784 3.39155E-08
v 0.2548015 0.1055421 4.72937E-08
v 0.5434131 0.2250887 4.206814E-08
v 0.2704958 0.05380478 5.326286E-08
v 0.5768842 0.114749 5.05989E-08
v 0.2757951 -2.097139E-07 5.932241E-08
v 0.588186 -4.472551E-07 5.932241E-08

vn 0 0 1
vn 0 0 1
vn 0 0 1
vn 0 0 1
vn 0 0 1
vn 0 0 1
vn 0 0 1
vn 0 0 1
vn 0 0 1
vn 0 0 1
vn 0 0 1
vn 0 0 1
vn 0 0 1
vn 0 0 1
vn 0 0 1
vn 0 0 1
vn 0 0 1
vn 0 0 1
vn 0 0 1
vn 0 0 1
vn 0 0 1
vn 0 0 1
vn 0 0 1
vn 0 0 1
vn 0 0 1
vn 0 0 1
vn 0 0 1
vn 0 0 1
vn 0 0 1
vn 0 0 1
vn 0 0 1
vn 0 0 1
vn 0 0 1
vn 0 0 1
vn 0 0 1
vn 0 0 1
vn 0 0 1
vn 0 0 1
vn 0 0 1
vn 0 0 1
vn 0 0 1
vn 0 0 1
vn 0 0 1
vn 0 0 1
vn 0 0 1
vn 0 0 1
vn 0 0 1
vn 0 0 1
vn 0 0 1
vn 0 0 1
vn 0 0 1
vn 0 0 1
vn 0 0 1
vn 0 0 1
vn 0 0 1
vn 0 0 1
vn 0 0 1
vn 0 0 1
vn 0 0 1
vn 0 0 1
vn 0 0 1
vn 0 0 1
vn 0 0 1
vn 0 0 1
vn 0 0 1
vn 0 0 1

vt 0.03124994 1
vt 0.03125001 0
vt -5.960464E-08 1
vt 1.589326E-08 0
vt 0.06250001 0
vt 0.06249994 1
vt 0.09375001 0
vt 0.09374994 1
vt 0.125 0
vt 0.1249999 1
vt 0.15625 0
vt 0.1562499 1
vt 0.1875 0
vt 0.1874999 1
vt 0.21875 0
vt 0.2187499 1
vt 0.25 0
vt 0.2499999 1
vt 0.28125 0
vt 0.2812499 1
vt 0.3125 0
vt 0.3124999 1
vt 0.34375 0
vt 0.3437499 1
vt 0.375 0
vt 0.3749999 1
vt 0.40625 5.960464E-08
vt 0.4062499 1
vt 0.4375 5.960464E-08
vt 0.4374999 1
vt 0.46875 5.960464E-08
vt 0.4687499 1
vt 0.5 5.960464E-08
vt 0.4999999 1
vt 0.53125 5.960464E-08
vt 0.5312499 1
vt 0.5625 5.960464E-08
vt 0.5624999 1
vt 0.59375 5.960464E-08
vt 0.5937499 1
vt 0.625 5.960464E-08
vt 0.6249999 1
vt 0.65625 5.960464E-08
vt 0.6562499 1
vt 0.6875 5.960464E-08
vt 0.6874999 1
vt 0.71875 5.960464E-08
vt 0.7187499 1
vt 0.75 5.960464E-08
vt 0.7499999 1
vt 0.78125 5.960464E-08
vt 0.7812499 1
vt 0.8125 5.960464E-08
vt 0.8124999 1
vt 0.84375 5.960464E-08
vt 0.8437499 1
vt 0.875 5.960464E-08
vt 0.8749999 1
vt 0.90625 5.960464E-08
vt 0.9062499 1
vt 0.9375 5.960464E-08
vt 0.9374999 1
vt 0.96875 5.960464E-08
vt 0.9687499 1
vt 1 5.960464E-08
vt 0.9999999 1

g Plane001031
usemtl Plane001031
usemap Plane001031
f 1/1/1 3/3/3 2/2/2
f 4/4/4 2/2/2 3/3/3
f 2/2/2 5/5/5 1/1/1
f 6/6/6 1/1/1 5/5/5
f 5/5/5 7/7/7 6/6/6
f 8/8/8 6/6/6 7/7/7
f 7/7/7 9/9/9 8/8/8
f 10/10/10 8/8/8 9/9/9
f 9/9/9 11/11/11 10/10/10
f 12/12/12 10/10/10 11/11/11
f 11/11/11 13/13/13 12/12/12
f 14/14/14 12/12/12 13/13/13
f 13/13/13 15/15/15 14/14/14
f 16/16/16 14/14/14 15/15/15
f 15/15/15 17/17/17 16/16/16
f 18/18/18 16/16/16 17/17/17
f 17/17/17 19/19/19 18/18/18
f 20/20/20 18/18/18 19/19/19
f 19/19/19 21/21/21 20/20/20
f 22/22/22 20/20/20 21/21/21
f 21/21/21 23/23/23 22/22/22
f 24/24/24 22/22/22 23/23/23
f 23/23/23 25/25/25 24/24/24
f 26/26/26 24/24/24 25/25/25
f 25/25/25 27/27/27 26/26/26
f 28/28/28 26/26/26 27/27/27
f 27/27/27 29/29/29 28/28/28
f 30/30/30 28/28/28 29/29/29
f 29/29/29 31/31/31 30/30/30
f 32/32/32 30/30/30 31/31/31
f 31/31/31 33/33/33 32/32/32
f 34/34/34 32/32/32 33/33/33
f 33/33/33 35/35/35 34/34/34
f 36/36/36 34/34/34 35/35/35
f 35/35/35 37/37/37 36/36/36
f 38/38/38 36/36/36 37/37/37
f 37/37/37 39/39/39 38/38/38
f 40/40/40 38/38/38 39/39/39
f 39/39/39 41/41/41 40/40/40
f 42/42/42 40/40/40 41/41/41
f 41/41/41 43/43/43 42/42/42
f 44/44/44 42/42/42 43/43/43
f 43/43/43 45/45/45 44/44/44
f 46/46/46 44/44/44 45/45/45
f 45/45/45 47/47/47 46/46/46
f 48/48/48 46/46/46 47/47/47
f 47/47/47 49/49/49 48/48/48
f 50/50/50 48/48/48 49/49/49
f 49/49/49 51/51/51 50/50/50
f 52/52/52 50/50/50 51/51/51
f 51/51/51 53/53/53 52/52/52
f 54/54/54 52/52/52 53/53/53
f 53/53/53 55/55/55 54/54/54
f 56/56/56 54/54/54 55/55/55
f 55/55/55 57/57/57 56/56/56
f 58/58/58 56/56/56 57/57/57
f 57/57/57 59/59/59 58/58/58
f 60/60/60 58/58/58 59/59/59
f 59/59/59 61/61/61 60/60/60
f 62/62/62 60/60/60 61/61/61
f 61/61/61 63/63/63 62/62/62
f 64/64/64 62/62/62 63/63/63
f 63/63/63 65/65/65 64/64/64
f 66/66/66 64/64/64 65/65/65
