#shenzhang_zhaozi01.obj

v 1.16272E-06 -1.749619 -0.7212784
v -0.6695547 -1.616437 -0.6977136
v -0.4952013 -1.205321 -0.3676636
v 1.071164E-06 -1.303822 -0.3819089
v -0.9150127 -0.9248114 -0.3534195
v -1.237177 -1.237164 -0.6741503
v -1.195522 -0.5049998 -0.3676636
v -1.616449 -0.6695419 -0.6977136
v -1.294024 -0.009797658 -0.3819096
v -1.749632 1.434021E-05 -0.72128
v -1.195523 0.4854041 -0.367664
v -1.616451 0.6695696 -0.697714
v -0.9150139 0.9052157 -0.3534195
v -1.237178 1.237191 -0.6741511
v -0.4952019 1.185725 -0.3676636
v -0.6695562 1.616464 -0.6977136
v -7.144405E-09 1.284227 -0.3819077
v 0 1.749648 -0.7212777
v 0.4952023 1.185725 -0.3676636
v 0.669556 1.616464 -0.6977136
v 0.9150141 0.9052168 -0.3534191
v 1.237178 1.237193 -0.6741503
v 1.195523 0.4854043 -0.3676636
v 1.616451 0.6695692 -0.6977136
v 1.294026 -0.00979727 -0.3819089
v 1.749635 1.434021E-05 -0.7212781
v 1.195524 -0.5049994 -0.3676644
v 1.616451 -0.6695415 -0.6977144
v 0.9150142 -0.924811 -0.353418
v 1.237178 -1.237163 -0.6741484
v 0.4952025 -1.20532 -0.367664
v 0.6695568 -1.616437 -0.6977147
v 6.123453E-07 -1.303822 -0.3819089
v 3.875732E-07 -1.749619 -0.7212781
v 1.044367 2.521335 -1.79539
v 0 2.729072 -1.934871
v -1.044368 2.521335 -1.795389
v -1.929741 1.929748 -1.655909
v -2.521327 1.044376 -1.79539
v -2.729064 6.201172E-06 -1.934871
v -2.521325 -1.044361 -1.795391
v -1.929739 -1.929732 -1.655908
v -1.044365 -2.521318 -1.795392
v 1.16272E-06 -2.729057 -1.934872
v 2.325439E-06 -3.708497 -3.67926
v -1.419179 -3.426203 -3.203646
v -2.622302 -2.6223 -2.728034
v -3.426203 -1.41918 -3.203645
v -3.708496 -1.937866E-06 -3.67926
v -3.426204 1.41918 -3.203646
v -2.622303 2.622305 -2.728032
v -1.41918 3.426203 -3.203647
v 3.875732E-07 3.708496 -3.679261
v 1.41918 3.426205 -3.203647
v 1.929741 1.92975 -1.655908
v 2.521327 1.044377 -1.79539
v 2.729066 7.751465E-06 -1.934872
v 2.521328 -1.044359 -1.795391
v 1.92974 -1.929731 -1.655907
v 1.04437 -2.521318 -1.79539
v 7.751465E-07 -2.729057 -1.934871
v 2.622303 2.622307 -2.728034
v 3.426204 1.419182 -3.203648
v 3.708496 -1.937866E-06 -3.679259
v 3.426207 -1.419179 -3.203648
v 2.622304 -2.622299 -2.728034
v 1.419181 -3.426202 -3.203646
v 1.16272E-06 -3.708497 -3.679259
v -0.1670575 -0.4229224 -0.03761398
v 8.269178E-07 -0.4561516 -0.03811628
v -0.3086811 -0.3282916 -0.03711363
v -0.4033119 -0.1866675 -0.03761457
v -0.4365422 -0.01961004 -0.03811628
v -0.4033118 0.1474479 -0.03761457
v -0.3086823 0.2890726 -0.03711304
v -0.1670571 0.3837033 -0.03761476
v 1.67901E-07 0.4169321 -0.03811589
v 0.1670583 0.3837035 -0.03761457
v 0.3086825 0.2890723 -0.03711304
v 0.4033125 0.1474483 -0.03761476
v 0.4365427 -0.01960946 -0.03811647
v 0.4033131 -0.1866671 -0.03761476
v 0.3086823 -0.3282914 -0.03711304
v 0.1670578 -0.4229217 -0.03761437
v 8.269178E-07 -0.4561516 -0.03811628

vn -0.09303471 -0.695726 0.7122568
vn -0.2170864 -0.6457239 0.7320616
vn -0.1672885 -0.4666418 0.8684814
vn -0.07663953 -0.5044963 0.8600057
vn -0.341387 -0.3421554 0.875434
vn -0.4675797 -0.4669305 0.7505632
vn -0.4627623 -0.1665265 0.8707008
vn -0.6440756 -0.2156088 0.7339479
vn -0.499483 -0.0005387543 0.8663235
vn -0.6954287 0.000385432 0.718595
vn -0.4592398 0.1636728 0.8731037
vn -0.6416259 0.2155307 0.7361132
vn -0.3358253 0.335082 0.8803076
vn -0.4634415 0.4640671 0.7548931
vn -0.1629242 0.4554446 0.8752291
vn -0.2141028 0.6400335 0.737914
vn 0 0.4930991 0.8699731
vn 0 0.6921889 0.7217164
vn 0.1629234 0.4554449 0.8752291
vn 0.2141018 0.640034 0.7379138
vn 0.3358248 0.3350819 0.8803078
vn 0.4634406 0.4640675 0.7548934
vn 0.4592389 0.1636736 0.8731039
vn 0.6416256 0.2155314 0.7361133
vn 0.4994817 -0.0005387894 0.8663242
vn 0.6954284 0.0003857638 0.7185953
vn 0.4627624 -0.1665261 0.8707008
vn 0.6440757 -0.2156091 0.7339477
vn 0.3413862 -0.3421546 0.8754346
vn 0.4675797 -0.4669299 0.7505636
vn 0.1672875 -0.4666423 0.8684813
vn 0.2170862 -0.6457239 0.7320617
vn 0.07664114 -0.504496 0.8600057
vn 0.09303536 -0.6957254 0.7122573
vn 0.2010068 0.7627035 0.6147192
vn 0 0.8205127 0.5716285
vn -0.2010075 0.7627031 0.6147194
vn -0.5291666 0.5291666 0.6632989
vn -0.7627017 0.2010061 0.6147215
vn -0.8205104 -6.467111E-07 0.5716316
vn -0.7627009 -0.2010061 0.6147225
vn -0.5291644 -0.5291648 0.6633021
vn -0.2010053 -0.7626999 0.614724
vn -0.0630447 -0.8188764 0.5704969
vn -0.04127569 -0.8554637 0.5162151
vn -0.1538808 -0.8144513 0.5594549
vn -0.5465916 -0.5465928 0.6344084
vn -0.8144524 -0.1538823 0.5594528
vn -0.8561954 -5.673699E-07 0.5166522
vn -0.8144536 0.1538812 0.5594515
vn -0.5465945 0.546594 0.6344047
vn -0.1538827 0.8144551 0.5594488
vn 0 0.8561975 0.5166487
vn 0.1538824 0.814455 0.559449
vn 0.5291662 0.5291671 0.6632988
vn 0.7627019 0.2010069 0.6147211
vn 0.8205106 0 0.5716312
vn 0.7627012 -0.201006 0.6147224
vn 0.5291647 -0.5291646 0.6633019
vn 0.2010059 -0.7626997 0.6147242
vn 0.06304488 -0.8188763 0.570497
vn 0.5465945 0.5465946 0.6344044
vn 0.8144538 0.153882 0.559451
vn 0.8561955 0 0.516652
vn 0.8144525 -0.1538817 0.5594528
vn 0.5465923 -0.5465924 0.6344082
vn 0.1538814 -0.8144514 0.5594546
vn 0.04127602 -0.8554639 0.5162149
vn -0.1189457 -0.3431477 0.9317197
vn -0.05341674 -0.3722799 0.9265821
vn -0.2483081 -0.2490393 0.936121
vn -0.3407847 -0.1187671 0.9326093
vn -0.3691345 -0.0004263206 0.9293759
vn -0.3390515 0.1168792 0.9334792
vn -0.2455225 0.2448073 0.9379702
vn -0.1167038 0.336731 0.9343407
vn 0 0.3655136 0.930806
vn 0.1167036 0.3367311 0.9343407
vn 0.2455222 0.244807 0.9379703
vn 0.3390507 0.1168797 0.9334794
vn 0.3691336 -0.0004265274 0.9293762
vn 0.3407853 -0.1187659 0.9326093
vn 0.248307 -0.2490386 0.9361215
vn 0.1189445 -0.3431484 0.9317196
vn 0.05341855 -0.3722795 0.9265822

vt 2.737899E-11 0.495535
vt 0.06283488 0.495535
vt 0.06283488 0.2575691
vt 2.737899E-11 0.2575691
vt 0.1256698 0.2575691
vt 0.1256698 0.495535
vt 0.1885046 0.2575691
vt 0.1885046 0.495535
vt 0.2513395 0.2575691
vt 0.2513395 0.495535
vt 0.3141744 0.2575691
vt 0.3141744 0.495535
vt 0.3770093 0.2575691
vt 0.3770093 0.495535
vt 0.4398442 0.2575691
vt 0.4398442 0.495535
vt 0.502679 0.2575691
vt 0.502679 0.495535
vt 0.5655139 0.2575691
vt 0.5655139 0.495535
vt 0.6283488 0.2575691
vt 0.6283488 0.495535
vt 0.6911837 0.2575691
vt 0.6911837 0.495535
vt 0.7540185 0.2575691
vt 0.7540185 0.495535
vt 0.8168535 0.2575691
vt 0.8168535 0.495535
vt 0.8796883 0.2575691
vt 0.8796883 0.495535
vt 0.9425232 0.2575691
vt 0.9425232 0.495535
vt 1.005358 0.2575691
vt 1.005358 0.495535
vt 0.5655139 0.749107
vt 0.502679 0.749107
vt 0.4398442 0.749107
vt 0.3770093 0.749107
vt 0.3141744 0.749107
vt 0.2513395 0.749107
vt 0.1885046 0.749107
vt 0.1256698 0.749107
vt 0.06283488 0.749107
vt 2.737899E-11 0.749107
vt 2.737899E-11 1
vt 0.06283488 1
vt 0.1256698 1
vt 0.1885046 1
vt 0.2513395 1
vt 0.3141744 1
vt 0.3770093 1
vt 0.4398442 1
vt 0.502679 1
vt 0.5655139 1
vt 0.6283488 0.749107
vt 0.6911837 0.749107
vt 0.7540185 0.749107
vt 0.8168535 0.749107
vt 0.8796883 0.749107
vt 0.9425232 0.749107
vt 1.005358 0.749107
vt 0.6283488 1
vt 0.6911837 1
vt 0.7540185 1
vt 0.8168535 1
vt 0.8796883 1
vt 0.9425232 1
vt 1.005358 1
vt 0.06283488 0.006208122
vt 2.737899E-11 0.006208122
vt 0.1256698 0.006208122
vt 0.1885046 0.006208122
vt 0.2513395 0.006208122
vt 0.3141744 0.006208122
vt 0.3770093 0.006208122
vt 0.4398442 0.006208122
vt 0.502679 0.006208122
vt 0.5655139 0.006208122
vt 0.6283488 0.006208122
vt 0.6911837 0.006208122
vt 0.7540185 0.006208122
vt 0.8168535 0.006208122
vt 0.8796883 0.006208122
vt 0.9425232 0.006208122
vt 1.005358 0.006208122

g shenzhang_zhaozi01
usemtl shenzhang_zhaozi01
usemap shenzhang_zhaozi01
f 1/1/1 3/3/3 2/2/2
f 1/1/1 4/4/4 3/3/3
f 2/2/2 3/3/3 5/5/5
f 2/2/2 5/5/5 6/6/6
f 6/6/6 5/5/5 7/7/7
f 6/6/6 7/7/7 8/8/8
f 8/8/8 7/7/7 9/9/9
f 8/8/8 9/9/9 10/10/10
f 10/10/10 9/9/9 11/11/11
f 10/10/10 11/11/11 12/12/12
f 12/12/12 11/11/11 13/13/13
f 12/12/12 13/13/13 14/14/14
f 14/14/14 13/13/13 15/15/15
f 14/14/14 15/15/15 16/16/16
f 16/16/16 15/15/15 17/17/17
f 16/16/16 17/17/17 18/18/18
f 18/18/18 17/17/17 19/19/19
f 18/18/18 19/19/19 20/20/20
f 20/20/20 19/19/19 21/21/21
f 20/20/20 21/21/21 22/22/22
f 22/22/22 21/21/21 23/23/23
f 22/22/22 23/23/23 24/24/24
f 24/24/24 23/23/23 25/25/25
f 24/24/24 25/25/25 26/26/26
f 26/26/26 25/25/25 27/27/27
f 26/26/26 27/27/27 28/28/28
f 28/28/28 27/27/27 29/29/29
f 28/28/28 29/29/29 30/30/30
f 30/30/30 29/29/29 31/31/31
f 30/30/30 31/31/31 32/32/32
f 32/32/32 31/31/31 33/33/33
f 32/32/32 33/33/33 34/34/34
f 35/35/35 20/20/20 22/22/22
f 36/36/36 20/20/20 35/35/35
f 36/36/36 18/18/18 20/20/20
f 37/37/37 18/18/18 36/36/36
f 37/37/37 16/16/16 18/18/18
f 38/38/38 16/16/16 37/37/37
f 38/38/38 14/14/14 16/16/16
f 39/39/39 14/14/14 38/38/38
f 39/39/39 12/12/12 14/14/14
f 40/40/40 12/12/12 39/39/39
f 40/40/40 10/10/10 12/12/12
f 41/41/41 10/10/10 40/40/40
f 41/41/41 8/8/8 10/10/10
f 42/42/42 8/8/8 41/41/41
f 42/42/42 6/6/6 8/8/8
f 43/43/43 6/6/6 42/42/42
f 43/43/43 2/2/2 6/6/6
f 44/44/44 2/2/2 43/43/43
f 44/44/44 1/1/1 2/2/2
f 45/45/45 44/44/44 43/43/43
f 45/45/45 43/43/43 46/46/46
f 46/46/46 43/43/43 42/42/42
f 46/46/46 42/42/42 47/47/47
f 47/47/47 42/42/42 41/41/41
f 47/47/47 41/41/41 48/48/48
f 48/48/48 41/41/41 40/40/40
f 48/48/48 40/40/40 49/49/49
f 49/49/49 40/40/40 39/39/39
f 49/49/49 39/39/39 50/50/50
f 50/50/50 39/39/39 38/38/38
f 50/50/50 38/38/38 51/51/51
f 51/51/51 38/38/38 37/37/37
f 51/51/51 37/37/37 52/52/52
f 52/52/52 37/37/37 36/36/36
f 52/52/52 36/36/36 53/53/53
f 53/53/53 36/36/36 35/35/35
f 53/53/53 35/35/35 54/54/54
f 54/54/54 35/35/35 55/55/55
f 35/35/35 22/22/22 55/55/55
f 55/55/55 22/22/22 24/24/24
f 55/55/55 24/24/24 56/56/56
f 56/56/56 24/24/24 26/26/26
f 56/56/56 26/26/26 57/57/57
f 57/57/57 26/26/26 28/28/28
f 57/57/57 28/28/28 58/58/58
f 58/58/58 28/28/28 30/30/30
f 58/58/58 30/30/30 59/59/59
f 59/59/59 30/30/30 32/32/32
f 59/59/59 32/32/32 60/60/60
f 60/60/60 32/32/32 34/34/34
f 60/60/60 34/34/34 61/61/61
f 54/54/54 55/55/55 62/62/62
f 62/62/62 55/55/55 56/56/56
f 62/62/62 56/56/56 63/63/63
f 63/63/63 56/56/56 57/57/57
f 63/63/63 57/57/57 64/64/64
f 64/64/64 57/57/57 58/58/58
f 64/64/64 58/58/58 65/65/65
f 65/65/65 58/58/58 59/59/59
f 65/65/65 59/59/59 66/66/66
f 66/66/66 59/59/59 60/60/60
f 66/66/66 60/60/60 67/67/67
f 67/67/67 60/60/60 61/61/61
f 67/67/67 61/61/61 68/68/68
f 4/4/4 69/69/69 3/3/3
f 4/4/4 70/70/70 69/69/69
f 3/3/3 69/69/69 71/71/71
f 3/3/3 71/71/71 5/5/5
f 5/5/5 71/71/71 72/72/72
f 5/5/5 72/72/72 7/7/7
f 7/7/7 72/72/72 73/73/73
f 7/7/7 73/73/73 9/9/9
f 9/9/9 73/73/73 74/74/74
f 9/9/9 74/74/74 11/11/11
f 11/11/11 74/74/74 75/75/75
f 11/11/11 75/75/75 13/13/13
f 13/13/13 75/75/75 76/76/76
f 13/13/13 76/76/76 15/15/15
f 15/15/15 76/76/76 77/77/77
f 15/15/15 77/77/77 17/17/17
f 17/17/17 77/77/77 78/78/78
f 17/17/17 78/78/78 19/19/19
f 19/19/19 78/78/78 79/79/79
f 19/19/19 79/79/79 21/21/21
f 21/21/21 79/79/79 80/80/80
f 21/21/21 80/80/80 23/23/23
f 23/23/23 80/80/80 81/81/81
f 23/23/23 81/81/81 25/25/25
f 25/25/25 81/81/81 82/82/82
f 25/25/25 82/82/82 27/27/27
f 27/27/27 82/82/82 83/83/83
f 27/27/27 83/83/83 29/29/29
f 29/29/29 83/83/83 84/84/84
f 29/29/29 84/84/84 31/31/31
f 31/31/31 84/84/84 85/85/85
f 31/31/31 85/85/85 33/33/33
